<svg width="463" height="674" viewBox="0 0 463 674" fill="none" xmlns="http://www.w3.org/2000/svg">
<path d="M462 673H1.42179L1 140.566C1 140.566 24.9985 134.389 28.2043 123.553C39.1962 86.4027 83.7363 96.6477 83.7363 96.6477C81.534 87.3819 91.2511 76.9401 99.6953 70.9591C106.258 66.3087 114.111 62.8116 122.682 60.7637C134.424 57.9561 148.175 57.3027 160.043 59.9907C161.654 60.3555 163.274 60.7503 164.8 61.2842C165.577 61.5594 167.744 62.2066 168.023 62.9168C160.98 44.3419 174.789 27.6883 201.563 23.4172C228.337 19.1461 230.597 1 230.597 1C230.597 1 232.85 19.1533 259.633 23.4172C286.407 27.6873 300.224 44.3419 293.172 62.9168C293.441 62.2056 295.618 61.5521 296.394 61.2842C297.921 60.7503 299.54 60.3566 301.152 59.9896C313.021 57.3099 326.77 57.9561 338.512 60.7637C347.074 62.8116 354.937 66.3087 361.5 70.9591C369.943 76.9473 379.661 87.3809 377.459 96.6477C377.459 96.6477 421.991 86.3955 432.99 123.553C436.196 134.389 461.553 140.812 461.553 140.812L462 673Z" fill="#EAB134" stroke="black" stroke-width="1.2498"/>
</svg>
