<svg width="42" height="43" viewBox="0 0 42 43" fill="none" xmlns="http://www.w3.org/2000/svg">
<path fill-rule="evenodd" clip-rule="evenodd" d="M7.01389 0.0274857C3.06485 -0.309048 0.00745137 2.49469 0.00745137 5.7014V6.78603H1.87021C16.4245 6.78603 29.3148 12.9337 37.2377 22.3802L37.2576 22.4038L38.1592 23.5613L39.2098 22.9032C42.2299 21.0148 43.057 17.2186 40.3994 14.6614C31.7859 6.34844 19.8726 1.12649 7.01389 0.0274857ZM35.1415 25.4497L34.2027 24.2429C26.9454 15.6088 15.1678 9.99918 1.87021 9.99918H0.00745137L0.000812447 35.0971C0.404583 35.1959 1.21212 35.6077 1.21212 36.4651C1.21212 37.3225 0.404058 37.896 2.45713e-05 38.0756L8.94787e-07 38.1651C-0.00248278 42.1028 5.16604 44.3814 8.86423 42.0792L12.4407 39.8499C12.5044 40.3972 12.8093 40.9023 13.2924 41.261C13.7755 41.6196 14.3999 41.8042 15.0363 41.7767C15.6728 41.7492 16.2726 41.5116 16.7117 41.113C17.1509 40.7145 17.3957 40.1856 17.3956 39.6356V36.4182C17.3976 36.1462 17.5192 35.885 17.7359 35.6876C17.9527 35.4902 18.2482 35.3712 18.5628 35.3549C18.8773 35.3385 19.1873 35.426 19.4299 35.5995C19.6726 35.7731 19.8297 36.0198 19.8694 36.2895V36.4182C19.8694 36.9867 20.1311 37.5319 20.5968 37.9339C21.0626 38.3358 21.6943 38.5617 22.3531 38.5617C23.0118 38.5617 23.6435 38.3358 24.1093 37.9339C24.5751 37.5319 24.8367 36.9867 24.8367 36.4182V31.9125L25.3384 31.5909L35.1415 25.4497ZM10.5187 18.3322C10.3753 18.2814 10.2021 18.22 9.94463 18.22C9.71625 18.22 9.49111 18.2683 9.275 18.3147C8.86781 18.4021 8.4927 18.4826 8.18841 18.22C8.00304 18.06 7.65173 17.9442 7.29592 17.8269C6.7577 17.6495 6.20918 17.4687 6.20918 17.1264C6.20918 17.094 6.20908 17.0586 6.20896 17.0205C6.20707 16.3911 6.20302 15.0404 6.64225 14.6614C6.90818 14.4318 7.32181 14.6691 7.75039 14.915C8.07245 15.0998 8.40296 15.2894 8.68558 15.2894C8.94234 15.2894 9.11685 15.2283 9.2618 15.1776C9.48871 15.0982 9.64319 15.0441 9.92742 15.2894C10.1698 15.4986 10.3204 15.5771 10.5756 15.71C10.8107 15.8325 11.1346 16.0012 11.7009 16.3611C11.7009 16.9296 11.6423 17.818 11.1765 18.22C10.8928 18.4648 10.7421 18.4114 10.5187 18.3322ZM21.6355 25.0684C21.1698 25.4704 20.538 25.6962 19.8793 25.6962C19.6017 25.6962 19.5538 25.515 19.4982 25.3053C19.422 25.0173 19.3315 24.6757 18.613 24.6757C18.5289 24.507 18.6991 24.307 18.8355 24.1466C19.049 23.8956 19.1798 23.7418 18.1231 23.9576C18.1231 23.3891 18.1472 22.9342 18.613 22.5322H19.8548C20.5135 22.5322 21.1698 22.5923 21.6355 22.9942C21.8429 23.1732 21.9128 23.1928 21.9697 23.2088C22.0407 23.2287 22.0915 23.2429 22.363 23.5527C22.363 24.1212 22.1013 24.6664 21.6355 25.0684ZM10.6143 31.5894C10.3981 31.543 10.173 31.4947 9.94463 31.4947C9.71625 31.4947 9.49111 31.543 9.275 31.5894C8.86781 31.6768 8.4927 31.7573 8.18841 31.4947C7.72263 31.0927 7.46096 30.5475 7.46096 29.979C7.46096 29.5329 7.62207 29.4087 7.91648 29.1817C7.99727 29.1194 8.08811 29.0493 8.18841 28.9627C8.49194 28.7008 8.85554 28.7802 9.25431 28.8674C9.46747 28.914 9.69069 28.9627 9.92014 28.9627C10.1475 28.9627 10.3745 28.9149 10.5935 28.8687C11.0091 28.781 11.3958 28.6995 11.7009 28.9627C11.8012 29.0493 11.892 29.1194 11.9728 29.1817C12.2672 29.4087 12.4283 29.5329 12.4283 29.979C12.4283 30.5475 12.1666 31.0927 11.7009 31.4947C11.3966 31.7573 11.0214 31.6768 10.6143 31.5894Z" fill="#0E0A00"/>
</svg>
