<svg width="655" height="278" viewBox="0 0 655 278" fill="none" xmlns="http://www.w3.org/2000/svg">
<path d="M0 277.078V4.03906H107.438V57.7582C26.2519 29.1847 20.5991 35.1396 26.2519 102.502H107.438V150.656C21.003 111.073 20.1952 144.194 26.2519 277.078H0Z" fill="#0E0A00"/>
<path d="M244.197 218.738C244.197 262.108 228.897 277.079 184.707 277.079C140.519 277.079 125.21 262.108 125.21 218.738V3.79688H146.453V197.24C146.453 215.28 157.505 222.571 184.699 222.571C211.894 222.571 222.945 215.28 222.945 197.24V3.79688H244.197V218.738Z" fill="#0E0A00"/>
<path fill-rule="evenodd" clip-rule="evenodd" d="M321.911 277.078C273.134 277.078 262.537 261.77 262.537 218.907V58.1709C262.537 15.3081 273.142 0 321.911 0C370.688 0 381.285 15.3075 381.285 58.1709V138.539V218.907C381.285 261.77 370.688 277.078 321.911 277.078ZM283.739 79.5989C283.739 61.6117 290.529 54.3428 321.911 54.3428C353.293 54.3428 360.083 61.6197 360.083 79.6069V197.471C360.083 215.458 353.293 222.728 321.911 222.728C290.529 222.728 283.739 215.458 283.739 197.471V79.5989Z" fill="#0E0A00"/>
<path fill-rule="evenodd" clip-rule="evenodd" d="M594.95 277.078C546.173 277.078 535.576 261.77 535.576 218.907V58.1709C535.576 15.3081 546.182 0 594.95 0C643.727 0 654.324 15.3075 654.324 58.1709V138.539V218.907C654.324 261.77 643.727 277.078 594.95 277.078ZM556.778 79.5989C556.778 61.6117 563.568 54.3428 594.95 54.3428C626.332 54.3428 633.122 61.6197 633.122 79.6069V197.471C633.122 215.458 626.332 222.728 594.95 222.728C563.568 222.728 556.778 215.458 556.778 197.471V79.5989Z" fill="#0E0A00"/>
<path fill-rule="evenodd" clip-rule="evenodd" d="M458.43 54.3428C465.46 54.3428 471.255 54.7079 476.017 55.4767L458.43 54.3428ZM458.43 222.728L476.004 221.597C471.245 222.364 465.454 222.728 458.43 222.728Z" fill="#0E0A00"/>
<path d="M399.057 218.907C399.057 261.77 409.653 277.078 458.43 277.078C507.208 277.078 517.804 261.77 517.804 218.907L476.004 221.597C471.245 222.364 465.454 222.728 458.43 222.728C427.048 222.728 420.258 215.458 420.258 197.471V79.5989C420.258 61.6117 427.048 54.3428 458.43 54.3428C465.46 54.3428 471.255 54.7079 476.017 55.4767L517.804 58.1709C517.804 15.3075 507.208 0 458.43 0C409.662 0 399.057 15.3081 399.057 58.1709V218.907Z" fill="#0E0A00"/>
</svg>
