<svg width="24" height="27" viewBox="0 0 24 27" fill="none" xmlns="http://www.w3.org/2000/svg">
<path fill-rule="evenodd" clip-rule="evenodd" d="M4.00965 0.0172584C1.75305 -0.194054 0.00596691 1.56643 0.00596691 3.57995V4.26099H1.0704C9.38716 4.26099 16.753 8.12114 21.2804 14.0527L21.2918 14.0675L21.8069 14.7943L22.4073 14.3811C24.1331 13.1953 24.6057 10.8117 23.0871 9.20596C18.1651 3.98623 11.3575 0.707331 4.00965 0.0172584ZM20.0826 15.9801L19.5461 15.2223C15.3991 9.80087 8.66902 6.27855 1.0704 6.27855H0.00596691L0.00217324 22.0377C0.232899 22.0997 0.694352 22.3583 0.694352 22.8967C0.694352 23.4351 0.232599 23.7952 0.00172303 23.9079L0.0017095 23.9642C0.000290254 26.4366 2.95373 27.8674 5.06698 26.4218L7.11069 25.0221C7.14706 25.3657 7.3213 25.6829 7.59737 25.908C7.87343 26.1332 8.23021 26.2492 8.59389 26.2319C8.95757 26.2146 9.30033 26.0654 9.55127 25.8152C9.80221 25.5649 9.94213 25.2328 9.94208 24.8875V22.8672C9.94318 22.6964 10.0127 22.5325 10.1365 22.4085C10.2604 22.2845 10.4293 22.2098 10.609 22.1996C10.7888 22.1893 10.9659 22.2442 11.1045 22.3532C11.2432 22.4622 11.3329 22.6171 11.3556 22.7865V22.8672C11.3556 23.2242 11.5052 23.5665 11.7713 23.8189C12.0375 24.0713 12.3985 24.2132 12.7749 24.2132C13.1513 24.2132 13.5123 24.0713 13.7784 23.8189C14.0446 23.5665 14.1941 23.2242 14.1941 22.8672V20.0381L14.4808 19.8362L20.0826 15.9801ZM6.01239 11.5109C5.93048 11.479 5.83148 11.4405 5.68435 11.4405C5.55385 11.4405 5.4252 11.4708 5.30171 11.4999C5.06903 11.5548 4.85468 11.6054 4.6808 11.4405C4.57487 11.34 4.37413 11.2673 4.17081 11.1936C3.86325 11.0822 3.54981 10.9687 3.54981 10.7538C3.54981 10.7334 3.54975 10.7112 3.54969 10.6873C3.54861 10.2921 3.54629 9.44399 3.79728 9.20596C3.94924 9.06185 4.1856 9.21085 4.4305 9.36524C4.61454 9.48125 4.8034 9.60031 4.9649 9.60031C5.11162 9.60031 5.21133 9.56196 5.29416 9.5301C5.42383 9.48024 5.51211 9.44629 5.67452 9.60031C5.81302 9.73166 5.89911 9.78094 6.04489 9.8644C6.17925 9.94132 6.36433 10.0473 6.68791 10.2733C6.68791 10.6302 6.65446 11.188 6.3883 11.4405C6.22617 11.5942 6.14003 11.5606 6.01239 11.5109ZM12.3649 15.7406C12.0987 15.993 11.7377 16.1348 11.3613 16.1348C11.2027 16.1348 11.1753 16.021 11.1436 15.8894C11.1 15.7086 11.0483 15.494 10.6377 15.494C10.5897 15.3881 10.6869 15.2625 10.7648 15.1618C10.8868 15.0042 10.9616 14.9076 10.3578 15.0431C10.3578 14.6862 10.3715 14.4005 10.6377 14.1481H11.3473C11.7237 14.1481 12.0987 14.1858 12.3649 14.4383C12.4834 14.5506 12.5233 14.5629 12.5559 14.573C12.5964 14.5854 12.6254 14.5944 12.7806 14.7889C12.7806 15.1459 12.631 15.4882 12.3649 15.7406ZM6.067 19.8352C5.94351 19.8061 5.81486 19.7757 5.68435 19.7757C5.55385 19.7757 5.4252 19.8061 5.30171 19.8352C5.06903 19.8901 4.85468 19.9406 4.6808 19.7757C4.41464 19.5233 4.26511 19.181 4.26511 18.824C4.26511 18.5439 4.35717 18.4659 4.52541 18.3234C4.57158 18.2842 4.62348 18.2403 4.6808 18.1859C4.85424 18.0214 5.06202 18.0713 5.28989 18.126C5.41169 18.1553 5.53924 18.1859 5.67036 18.1859C5.80026 18.1859 5.93 18.1558 6.05514 18.1268C6.29263 18.0718 6.51361 18.0206 6.68791 18.1859C6.74522 18.2403 6.79713 18.2842 6.8433 18.3234C7.01153 18.4659 7.1036 18.5439 7.1036 18.824C7.1036 19.181 6.95407 19.5233 6.68791 19.7757C6.51403 19.9406 6.29968 19.8901 6.067 19.8352Z" fill="#0E0A00"/>
</svg>
