<svg width="96" height="96" viewBox="0 0 96 96" fill="none" xmlns="http://www.w3.org/2000/svg">
<g id="&#209;&#136;&#208;&#176;&#209;&#128;&#208;&#184;&#208;&#186; 4">
<path id="Vector" d="M48.3072 94.9871C74.3113 94.9871 95.3917 73.8879 95.3917 47.8607C95.3917 21.8336 74.3113 0.734375 48.3072 0.734375C22.3031 0.734375 1.22266 21.8336 1.22266 47.8607C1.22266 73.8879 22.3031 94.9871 48.3072 94.9871Z" stroke="black" stroke-width="1.025"/>
<path id="Vector_2" d="M35.5736 65.0565C35.9816 65.0701 36.3374 65.0209 36.6827 64.9434C37.0803 64.8554 37.478 64.758 37.886 64.7078C38.3464 64.6512 38.8067 64.5978 39.2671 64.602C39.7066 64.6062 40.1565 64.6219 40.596 64.6397C41.2761 64.668 41.9457 64.6941 42.6258 64.736C43.5361 64.7915 44.4568 64.7905 45.3671 64.802C45.7647 64.8072 46.152 64.7936 46.5391 64.7852C46.8426 64.7789 47.1355 64.7203 47.418 64.624C48.7468 64.1778 50.0024 63.6082 51.1952 62.8856C51.4777 62.718 51.7393 62.5337 52.0009 62.3378C52.2834 62.1179 52.5973 61.9576 52.9426 61.8697C53.2356 61.7964 53.5285 61.7063 53.811 61.6309C54.7318 61.3901 55.5584 60.9512 56.3327 60.4171C57.0965 59.8945 57.7452 59.2463 58.3835 58.5929C58.938 58.0284 59.3775 57.3738 59.8065 56.7141C60.1099 56.2428 60.3715 55.7475 60.6121 55.2437C60.6524 55.1798 60.6841 55.1107 60.7063 55.0384C60.8318 54.6949 60.9469 54.3462 61.1144 54.0205C61.1747 53.9163 61.2004 53.7957 61.1877 53.676C61.1772 53.5357 61.0934 53.4288 60.9574 53.3995C60.8214 53.3701 60.6853 53.3618 60.5598 53.4518C60.0994 53.7618 59.6391 54.053 59.1892 54.3671C58.8229 54.6206 58.5299 54.9557 58.237 55.2898C58.0382 55.5181 57.8499 55.7475 57.6406 55.9695C57.3895 56.248 57.1069 56.4983 56.8035 56.7235C55.9978 57.312 55.1189 57.7205 54.1772 58.0158C54.0726 58.0493 53.968 58.0755 53.8634 58.0493C53.8255 58.0421 53.7912 58.022 53.7665 57.9924C53.7417 57.9628 53.7279 57.9256 53.7274 57.887C53.7483 57.6974 53.8006 57.5236 53.968 57.4157C54.0726 57.3466 54.1877 57.2806 54.3028 57.2282C54.6481 57.0753 55.0038 56.9381 55.3386 56.7789C55.8095 56.558 56.2281 56.2616 56.6048 55.8993C57.0338 55.4971 57.4313 55.0762 57.8289 54.6499C58.2056 54.2467 58.6137 53.8802 59.0741 53.5723C59.6286 53.2016 60.1832 52.8319 60.7691 52.5125C60.8842 52.4507 60.9888 52.3742 61.0934 52.3009C61.2608 52.1846 61.4283 52.0684 61.6375 52.037C61.6898 52.0297 61.7422 52.0003 61.784 51.9679C62.2444 51.5919 62.6735 51.1887 63.0187 50.6996C63.3536 50.2294 63.6046 49.7236 63.7616 49.1686C63.8348 48.9298 63.908 48.692 63.9603 48.4501C64.065 47.9265 64.0441 47.3977 63.9813 46.872C63.8808 45.9683 63.5883 45.0967 63.1233 44.3156C63.071 44.2129 63.0082 44.1082 62.9559 44.0067C62.7676 43.6998 62.5583 43.4139 62.2758 43.1877C62.2151 43.144 62.1621 43.0906 62.1188 43.0296C61.9828 42.8275 61.784 42.6924 61.5852 42.5625C61.3759 42.4264 61.1771 42.2892 60.9679 42.152C60.9365 42.1342 60.9051 42.1216 60.8842 42.0996C60.6122 41.8368 60.2564 41.7278 59.9425 41.5529C59.2728 41.1853 58.6764 40.7371 58.1951 40.1402C57.8812 39.7527 57.6301 39.3244 57.3686 38.9086C56.9919 38.3389 56.6152 37.7765 56.1653 37.2655C56.0345 37.108 55.8789 36.9729 55.7048 36.8655C55.234 36.5911 54.7632 36.3314 54.2505 36.1565C53.9471 36.0507 53.6332 35.9889 53.3088 35.9491C53.0682 35.9187 52.8379 35.9533 52.6182 36.0486C52.4508 36.1208 52.2729 36.1774 52.0846 36.1921C51.9172 36.2046 51.7706 36.1638 51.6556 36.0213C51.5405 35.8642 51.3626 35.7711 51.1952 35.6799C50.8035 35.4763 50.3781 35.3457 49.9397 35.2946C48.9939 35.1657 48.0309 35.2714 47.1355 35.6025C46.56 35.8193 46.0369 36.1302 45.5765 36.5565C45.0952 37.0078 44.6557 37.4969 44.2895 38.0457C44.164 38.2342 44.0593 38.4311 43.986 38.6478C43.9128 38.8405 43.8291 39.027 43.7559 39.2165C43.7303 39.2826 43.6894 39.3417 43.6367 39.389C43.584 39.4363 43.5208 39.4706 43.4524 39.4888C43.3164 39.5255 43.2118 39.6155 43.0967 39.7035C42.8142 39.9265 42.5735 40.1789 42.3642 40.469C42.0712 40.8712 41.8097 41.2932 41.5899 41.7373C41.4225 42.0671 41.297 42.4127 41.2237 42.7719C41.1505 43.1133 41.161 43.4579 41.2656 43.7951C41.2866 43.8611 41.3179 43.8789 41.3807 43.8527C41.6737 43.7428 41.9666 43.6904 42.2701 43.681C42.584 43.6705 42.8874 43.5888 43.1489 43.4034C43.3059 43.2924 43.4734 43.195 43.6408 43.0851C44.1117 42.7573 44.6348 42.5939 45.1998 42.5279C45.6183 42.4787 46.0368 42.4588 46.4554 42.4714C46.7588 42.4798 47.0622 42.529 47.3552 42.6075C47.5435 42.6578 47.7214 42.7311 47.8574 42.8756C47.9097 42.929 47.962 42.9898 47.9934 43.0547C48.0667 43.2003 47.9935 43.3699 47.8366 43.4097C47.7609 43.4263 47.6828 43.4288 47.6063 43.4171C47.5207 43.4042 47.4366 43.3828 47.3552 43.3532C46.7902 43.1479 46.1938 43.1605 45.6079 43.2024C45.3777 43.2181 45.158 43.2621 44.9278 43.2977C44.6139 43.3479 44.3313 43.4757 44.0697 43.6506C43.8709 43.7805 43.6722 43.9061 43.4734 44.0381C43.1176 44.279 42.7095 44.3805 42.2805 44.391C41.9248 44.4004 41.611 44.5104 41.3075 44.6884C41.1401 44.7879 40.9831 44.8947 40.8157 45.0016C40.6901 45.0864 40.5645 45.1681 40.4076 45.1566C40.3553 45.1534 40.3031 45.1838 40.2612 45.2173C39.5916 45.8037 38.8591 46.3274 38.2313 46.9694C37.1252 48.0788 36.2128 49.3659 35.5318 50.7772C35.4062 51.0317 35.333 51.3008 35.2597 51.571L34.6006 54.0697C34.5587 54.2258 34.5273 54.386 34.4331 54.5243C34.4226 54.5421 34.4226 54.5619 34.4122 54.5829C34.3808 54.6845 34.4017 54.7944 34.4645 54.8499C34.5587 54.919 34.6633 54.9274 34.7366 54.8709C35.1237 54.6133 35.5631 54.4918 35.9607 54.2897C36.1909 54.1734 36.4211 54.0467 36.6408 53.9064C37.142 53.5853 37.5526 53.1411 37.8337 52.6161C37.9488 52.4077 38.0535 52.1962 38.1686 51.9878C38.3674 51.616 38.6184 51.2767 38.9219 50.9877C39.0893 50.8337 39.2775 50.6975 39.4868 50.6043C39.5665 50.5734 39.6536 50.5665 39.7373 50.5843C39.8209 50.6022 39.8975 50.6441 39.9577 50.7049C40.0519 50.8107 40.0729 50.9437 39.9996 51.061C39.9264 51.1584 39.853 51.2474 39.7693 51.3333C39.7066 51.4024 39.6229 51.4631 39.5496 51.5239C39.3549 51.6785 39.1915 51.869 39.0684 52.0852C38.8068 52.5334 38.5348 52.9733 38.2836 53.4257C37.9802 53.9901 37.5198 54.408 36.9757 54.7369C36.6828 54.9159 36.3793 55.0657 36.055 55.1934C35.6992 55.3327 35.3539 55.4731 34.9982 55.6019C34.5692 55.7579 34.182 55.9852 33.8158 56.2459C33.6484 56.3569 33.4915 56.4585 33.3241 56.5664C33.2808 56.5938 33.2419 56.6277 33.2089 56.6669C33.0624 56.8565 32.9159 57.045 32.8427 57.2722C32.7485 57.5267 32.6648 57.7812 32.5811 58.0378C32.4974 58.3279 32.4451 58.6253 32.466 58.9311C32.4765 59.0055 32.4765 59.085 32.4555 59.1562C32.4394 59.2281 32.4072 59.2954 32.3614 59.3531C32.3196 59.4149 32.2358 59.4024 32.2044 59.3385C32.2044 59.328 32.194 59.3186 32.194 59.3081C32.1207 59.0589 31.9429 58.8923 31.7336 58.7426C31.1021 58.2752 30.3989 57.9138 29.6515 57.6723C29.2329 57.5393 28.898 57.312 28.6469 56.9444C28.48 56.6927 28.267 56.4749 28.0191 56.3025C27.9145 56.2292 27.7995 56.16 27.6844 56.1213C27.4542 56.0511 27.2972 56.1496 27.2344 56.3726C27.2135 56.4752 27.1925 56.5874 27.203 56.6921C27.2344 57.0136 27.2972 57.3298 27.4123 57.6346C27.5588 57.9969 27.6843 58.3624 27.8936 58.6944C27.9354 58.7667 27.9668 58.8515 27.9877 58.9353C28.061 59.3982 28.2598 59.8181 28.4691 60.2317C29.0328 61.3688 29.8841 62.3383 30.9384 63.0437C32.0371 63.7904 33.2194 64.3852 34.4645 64.8554C34.8412 64.9999 35.2178 65.0869 35.5736 65.0565ZM55.3177 47.6438C55.1398 47.6469 55.0457 47.626 54.9934 47.5317C54.9201 47.4176 54.9411 47.3024 55.0143 47.1976C55.0457 47.1453 55.0876 47.096 55.1399 47.0562C55.2236 46.9903 55.3178 46.9254 55.4119 46.8751C55.548 46.7986 55.6944 46.7295 55.8408 46.6688C56.8558 46.2582 57.9021 46.1441 58.9798 46.2509C59.346 46.2876 59.7018 46.2886 60.0471 46.12C60.204 46.0436 60.361 46.0875 60.4552 46.208C60.5493 46.3242 60.5598 46.4981 60.4761 46.6332C60.4447 46.6902 60.4013 46.7398 60.3489 46.7785C60.2965 46.8172 60.2364 46.844 60.1726 46.8573C59.8064 46.9599 59.4403 47.0196 59.0636 46.9714C58.6887 46.927 58.3106 46.9144 57.9335 46.9337C57.2848 46.962 56.6571 47.095 56.0502 47.3485C55.9037 47.4113 55.7676 47.4919 55.6107 47.5516C55.4956 47.5987 55.37 47.6281 55.3177 47.6438ZM43.5675 61.3492C42.9313 61.373 42.2955 61.2945 41.6842 61.1167C41.6423 61.1041 41.6005 61.102 41.5586 61.0905C41.371 61.0393 41.1742 61.0315 40.9831 61.0675C40.8262 61.0926 40.6692 61.1 40.5018 61.1031C40.3553 61.1052 40.2611 61.0193 40.2088 60.8915C40.1565 60.77 40.188 60.6591 40.2612 60.5606C40.3012 60.5094 40.3518 60.4675 40.4096 60.4378C40.4674 60.4082 40.5311 60.3915 40.596 60.3889C40.7111 60.3794 40.8156 60.3784 40.9203 60.3595C41.1714 60.3166 41.4121 60.3219 41.6528 60.3826C41.7992 60.4193 41.9458 60.457 42.0923 60.4884C42.2701 60.5261 42.4479 60.57 42.6362 60.591C43.2431 60.6611 43.85 60.6737 44.4673 60.5983C44.5719 60.5858 44.6766 60.591 44.7813 60.636C44.9487 60.7083 45.0115 60.8842 44.9278 61.0382C44.8948 61.0955 44.848 61.1438 44.7917 61.1785C44.6976 61.2298 44.6034 61.2717 44.4987 61.2979C44.1953 61.3733 43.8814 61.3439 43.5675 61.3492ZM60.5912 32.5319C60.5787 33.4461 60.4198 34.3523 60.1204 35.216C59.8797 35.8758 59.6286 36.5293 59.2938 37.145C59.1473 37.4089 59.0217 37.6833 58.8857 37.9525C58.8438 38.0289 58.7916 38.0614 58.6974 38.0352C58.5423 37.9884 58.3755 37.9976 58.2265 38.0614C58.0695 38.1253 57.9859 38.2447 57.9963 38.4122C57.9963 38.496 58.0173 38.5819 58.0382 38.6625C58.101 38.8395 58.2055 38.9914 58.3206 39.1317C58.4357 39.2637 58.5404 39.3946 58.645 39.5328C58.8962 39.8648 59.1891 40.1486 59.5239 40.3821C59.8274 40.5895 60.1413 40.778 60.4447 40.9769C60.5284 41.0293 60.6226 41.0775 60.6853 41.1445C60.769 41.2304 60.8527 41.2304 60.9469 41.1864C61.1771 41.0838 61.2504 40.9571 61.2504 40.7078C61.2534 40.5432 61.1978 40.3828 61.0934 40.2554C60.9574 40.0763 60.9575 39.9025 61.0412 39.7129C61.1667 39.448 61.2609 39.1715 61.4074 38.9233C61.9305 38.0551 62.2863 37.1241 62.5792 36.1617C62.799 35.4182 62.9559 34.6589 63.0396 33.885C63.1128 33.1665 63.1338 32.4471 63.071 31.7224C62.9938 30.8093 62.7932 29.9109 62.4746 29.0519C62.1075 28.079 61.5448 27.1918 60.8214 26.4453C59.8446 25.4313 58.5814 24.7406 57.2011 24.4659C56.6306 24.3428 56.0477 24.2866 55.4642 24.2984C54.5539 24.3246 53.6646 24.4764 52.7961 24.7518C52.7543 24.7644 52.7229 24.7801 52.6811 24.7968C52.5032 24.8702 52.4717 24.9383 52.4927 25.1216C52.5031 25.2975 52.5659 25.4587 52.6601 25.6064C52.8171 25.8745 52.9844 26.1363 53.1518 26.4002C53.246 26.551 53.3925 26.6516 53.5495 26.7291C53.7064 26.8087 53.8633 26.8265 54.0412 26.7773C54.512 26.6484 54.9934 26.595 55.4851 26.6034C56.6361 26.6243 57.6511 27.0076 58.53 27.747C59.3775 28.4518 59.9216 29.3524 60.2564 30.3902C60.4866 31.094 60.5807 31.8177 60.5912 32.5319Z" fill="black"/>
</g>
</svg>
