<svg width="96" height="96" viewBox="0 0 96 96" fill="none" xmlns="http://www.w3.org/2000/svg">
<g id="&#209;&#136;&#208;&#176;&#209;&#128;&#208;&#184;&#208;&#186; 2">
<path id="Vector" d="M48.0162 94.9871C74.0203 94.9871 95.1008 73.8879 95.1008 47.8607C95.1008 21.8336 74.0203 0.734375 48.0162 0.734375C22.0121 0.734375 0.931641 21.8336 0.931641 47.8607C0.931641 73.8879 22.0121 94.9871 48.0162 94.9871Z" stroke="black" stroke-width="1.025"/>
<path id="Vector_2" d="M47.8557 65.3752C51.9614 65.7418 55.7606 65.1951 59.3454 63.3897C67.1321 59.4666 71.016 50.4948 67.3006 41.5471C66.4373 39.4694 65.2048 37.6189 63.674 35.9757C63.2502 35.5223 62.7407 35.1484 62.2646 34.7442C61.7912 34.3404 61.3109 33.9448 60.8238 33.5577C60.227 33.0851 59.6221 32.6228 59.0095 32.1711C58.2812 31.638 57.5802 31.3762 56.7944 32.1627C56.4857 32.4727 55.9532 32.1302 56.0097 31.6233C56.084 30.9552 55.9155 30.6222 55.2511 30.3897C48.8152 28.1276 42.6324 28.5685 36.8776 32.3229C32.6934 35.0531 30.2963 39.0515 29.5879 43.9956C29.3326 45.7801 29.3556 47.6076 29.8244 49.3837C29.8558 49.501 29.9813 49.6319 30.0912 49.6759C30.1686 49.7042 30.3413 49.6193 30.3978 49.5355C30.7933 48.9648 31.1511 48.3669 31.5665 47.8129C31.6565 47.6924 32.0196 47.616 32.1095 47.6935C32.2968 47.8516 32.5427 48.1752 32.4883 48.3459C32.1535 49.4162 31.6586 50.4268 30.7514 51.1243C30.3747 51.4133 30.4093 51.6583 30.5244 51.9955C31.375 54.4691 32.729 56.6496 34.5046 58.5503C38.1667 62.4702 42.7099 64.6694 47.8557 65.3752ZM67.0107 49.6445C66.5231 54.0754 63.6918 57.4539 59.969 58.5472C57.824 59.1766 55.7994 58.9158 54.0761 57.4517C51.6559 55.396 50.4213 52.7831 50.687 49.5377C50.8785 47.1991 51.975 45.3246 53.5236 43.6406C55.4509 41.5471 57.9035 40.7942 60.6522 40.7743C60.9253 40.7732 61.2266 40.7994 61.4683 40.9104C63.3298 41.7671 65.006 42.8416 65.9633 44.7664C66.8245 46.4975 67.1331 48.3197 67.0107 49.6445ZM37.2899 40.5407C37.3673 39.7647 37.7178 39.2097 38.3477 38.9259C38.4482 38.8798 38.6449 38.9091 38.7223 38.9834C38.8573 39.1144 39.0446 39.329 39.0174 39.4694C38.896 40.0904 38.5947 40.6308 38.0098 40.9334C37.8633 41.0078 37.6195 40.9586 37.4468 40.8937C37.3631 40.8623 37.3422 40.6643 37.2899 40.5407ZM43.6997 46.7981C43.5835 46.7342 43.4046 46.6964 43.3628 46.6011C43.2885 46.4283 43.2006 46.1309 43.2843 46.044C43.6568 45.6534 44.0795 45.3078 44.5053 44.9738C44.5775 44.9172 44.8088 44.9549 44.8799 45.0303C45.0128 45.1706 45.1802 45.3843 45.1572 45.5435C45.0704 46.1792 44.3683 46.7499 43.6997 46.7981ZM45.3434 61.0951C45.3979 60.45 45.9378 59.8112 46.62 59.5756C46.7215 59.5389 46.9182 59.5892 46.982 59.6709C47.1013 59.8186 47.2509 60.0395 47.2164 60.1945C47.0709 60.8805 46.417 61.4302 45.7766 61.4103C45.6218 61.404 45.4732 61.1925 45.3434 61.0951ZM46.7152 37.9435C46.778 37.9729 46.8428 37.9969 46.9004 38.0346C47.1651 38.2106 47.2038 38.6557 46.9841 38.95C46.5802 39.4882 46.1104 39.638 45.7777 39.3312C45.723 39.2883 45.6799 39.2325 45.6521 39.1688C45.4889 38.6148 46.1209 37.8901 46.7152 37.9435ZM42.3499 33.4383C42.2411 33.3733 42.08 33.3356 42.0339 33.2414C41.8037 32.7743 41.9858 32.2737 42.4493 32.0339C42.7475 31.8799 43.1838 32.1386 43.2079 32.4832C43.2414 32.9775 42.8856 33.3733 42.3499 33.4383ZM47.0584 56.505C47.4874 56.4621 47.7186 56.6935 47.6966 56.9805C47.6757 57.2737 47.5292 57.4727 47.2289 57.5334C46.9956 57.5795 46.6984 57.302 46.7623 57.0328C46.8114 56.815 46.9862 56.6276 47.0584 56.505ZM59.067 38.1142C59.0158 37.8011 59.2083 37.6199 59.4814 37.5288C59.8036 37.422 60.014 37.6074 60.0872 37.8953C60.1699 38.2085 59.9794 38.4127 59.6865 38.4808C59.3924 38.5478 59.1601 38.4483 59.067 38.1142Z" fill="black"/>
</g>
</svg>
