<svg width="96" height="97" viewBox="0 0 96 97" fill="none" xmlns="http://www.w3.org/2000/svg">
<g id="&#209;&#136;&#208;&#176;&#209;&#128;&#208;&#184;&#208;&#186; 3">
<path id="Vector" d="M48.3072 95.534C74.3113 95.534 95.3917 74.4348 95.3917 48.4076C95.3917 22.3804 74.3113 1.28125 48.3072 1.28125C22.3031 1.28125 1.22266 22.3804 1.22266 48.4076C1.22266 74.4348 22.3031 95.534 48.3072 95.534Z" stroke="black" stroke-width="1.025"/>
<path id="Vector_2" d="M73.7017 56.0022C73.6808 55.8347 73.6703 55.6671 73.6389 55.4996C73.5656 55.0566 73.3042 54.7319 72.9484 54.4753C72.8752 54.4261 72.8124 54.3905 72.7914 54.2931C72.781 54.2471 72.7287 54.2041 72.6868 54.1706C72.5613 54.069 72.4356 53.9727 72.31 53.8721L60.4133 44.4385C57.5673 42.1775 54.7214 39.9175 51.8649 37.6575L42.8247 30.487C41.5481 29.4691 40.2611 28.4522 38.9741 27.4342C38.859 27.3431 38.7545 27.2416 38.6498 27.1515C38.5874 27.1065 38.5208 27.0675 38.451 27.0352C38.1894 26.9253 37.9278 26.9284 37.6557 26.9619C37.4883 26.9829 37.3209 27.007 37.1535 27.0426C36.3793 27.2101 35.7724 27.6311 35.3329 28.2857C35.1528 28.5463 35.0414 28.8481 35.0086 29.1633C35.0086 29.2167 35.0086 29.2753 34.9877 29.3224C34.9354 29.4272 34.9668 29.5141 35.0191 29.6042C35.0505 29.645 35.0714 29.6838 35.1133 29.6963C35.2074 29.7194 35.2597 29.7822 35.3225 29.8377L40.596 34.4247C42.7514 36.2919 44.8964 38.1571 47.0414 40.0243L52.0951 44.4154C53.9366 46.0157 55.7677 47.6148 57.6092 49.215L63.4477 54.2858C64.5359 55.2346 65.6241 56.1834 66.7227 57.1312C66.7855 57.1919 66.8588 57.2516 66.9216 57.3145C67.2041 57.5794 67.518 57.8088 67.8319 58.0276C68.0307 58.1638 68.219 58.302 68.3655 58.4979C68.4283 58.5785 68.512 58.6068 68.5957 58.6267C68.6375 58.6361 68.6584 58.613 68.6688 58.5869C68.6898 58.545 68.7003 58.501 68.7212 58.457C69.1782 57.2404 69.9512 56.1678 70.9604 55.3498C71.1696 55.1728 71.4103 55.022 71.651 54.8953C71.8288 54.8052 72.0171 54.7382 72.2159 54.6984C72.2891 54.6827 72.3624 54.6879 72.4461 54.7057C72.6658 54.755 72.8646 54.8649 73.0216 55.0283C73.0841 55.0953 73.1369 55.1708 73.1786 55.2524C73.2518 55.3886 73.2937 55.5383 73.3146 55.6923C73.3355 55.9363 73.325 56.1824 73.2936 56.4274C73.2309 56.8914 73.0634 57.3186 72.8751 57.7386C72.5403 58.4706 72.0904 59.1325 71.5777 59.7493C70.9383 60.5224 70.1871 61.1955 69.349 61.7464C68.92 62.0239 68.4806 62.2564 67.9888 62.4177C67.7586 62.4952 67.5179 62.5455 67.2668 62.5748C66.9634 62.6115 66.6704 62.5476 66.3984 62.4271C66.3617 62.4109 66.3294 62.3861 66.3041 62.3549C66.1577 62.1171 66.0635 61.8616 66.0949 61.5715C66.1159 61.4228 66.1577 61.2825 66.231 61.1568C66.3774 60.9107 66.524 60.6678 66.6809 60.43C66.7542 60.3075 66.8588 60.1986 66.9425 60.0855C67.0681 59.941 67.204 59.8122 67.3609 59.7158C67.5493 59.5954 67.7586 59.4865 67.9574 59.3817C68.0662 59.3218 68.189 59.2921 68.3131 59.2959C68.3968 59.3011 68.4492 59.2739 68.4806 59.1974C68.491 59.1691 68.5119 59.143 68.5223 59.1157C68.5433 59.077 68.5434 59.0435 68.5015 59.0131C68.4283 58.9461 68.355 58.878 68.2817 58.8131C67.9887 58.5638 67.6958 58.3177 67.4028 58.0664C64.3685 55.442 61.3237 52.8165 58.2894 50.191C55.8724 48.1049 53.4658 46.0177 51.0488 43.9306L43.7664 37.6397C41.1192 35.3462 38.4615 33.0528 35.8039 30.7593C35.2702 30.2922 34.7261 29.8272 34.182 29.356C34.1235 29.3015 34.054 29.2603 33.9782 29.235C33.9024 29.2097 33.822 29.201 33.7425 29.2093C32.3195 29.291 31.2418 30.0807 30.614 30.863C30.3629 31.1698 30.1641 31.506 30.0281 31.8767C29.8712 32.2914 29.7979 32.7176 29.8397 33.1648C29.8607 33.3219 29.892 33.4664 29.9443 33.6099L30.1013 34.0204C30.2164 34.1189 30.3316 34.2194 30.4467 34.3147C34.6843 37.6649 38.9218 41.0129 43.149 44.362C43.3478 44.5191 43.5571 44.6762 43.7559 44.8333C43.8082 44.8741 43.8501 44.8919 43.9234 44.8522C43.9588 44.8297 43.999 44.8157 44.0407 44.8113C44.0825 44.807 44.1247 44.8123 44.164 44.827C44.2225 44.8422 44.284 44.8408 44.3418 44.8228C44.436 44.7977 44.5197 44.8082 44.6138 44.8144C44.7603 44.8228 44.9069 44.8344 45.0533 44.8239C45.4196 44.7977 45.7753 44.8029 46.1311 44.8637C46.1763 44.8691 46.2221 44.868 46.2671 44.8605C46.4136 44.8427 46.56 44.8113 46.7065 44.8029C47.1983 44.7757 47.6587 44.8825 48.0982 45.1161C48.4614 45.3024 48.7847 45.5578 49.0502 45.868C49.1653 45.9968 49.2805 46.1246 49.3851 46.2523C49.427 46.2921 49.4584 46.3351 49.5002 46.3675C49.699 46.5141 49.8873 46.6712 50.0966 46.798C50.7244 47.1781 51.2894 47.641 51.8126 48.1541C52.6182 48.9501 53.3193 49.8402 53.9471 50.7827C54.0413 50.9231 54.1459 51.0582 54.2506 51.188C54.4703 51.4498 54.69 51.7064 54.8993 51.9661C55.2132 52.3327 55.569 52.6521 55.9561 52.9233C56.113 53.0281 56.2699 53.1317 56.4164 53.2323C56.7512 53.448 57.0547 53.6962 57.3372 53.9706C57.6197 54.246 57.8394 54.5707 58.0591 54.8963C58.1428 55.0178 58.2161 55.1414 58.2999 55.265C58.7812 56.0148 59.3253 56.7207 59.8798 57.4202C59.9007 57.4558 59.9425 57.4904 59.9635 57.5291C60.089 57.7365 60.2564 57.8946 60.4552 58.0433C62.2444 59.4571 64.0337 60.8751 65.8229 62.292L65.9484 62.3926C66.0007 62.4292 66.0426 62.469 66.0635 62.535C66.074 62.6272 66.1472 62.6774 66.2205 62.7225C66.4611 62.8628 66.7122 62.9214 66.9843 62.9361C67.2877 62.9529 67.5911 62.9005 67.8736 62.824C68.2085 62.7361 68.5329 62.6062 68.8468 62.4502C69.4396 62.1441 69.9944 61.7694 70.4999 61.3338C71.3545 60.6145 72.0924 59.7665 72.6868 58.8204C73.0635 58.2245 73.3774 57.5972 73.5552 56.9144C73.6494 56.5594 73.6808 56.3028 73.7017 56.0033V56.0022Z" fill="black"/>
<path id="Vector_3" d="M31.3049 65.1163H32.1525C32.2257 65.1163 32.2989 65.1079 32.3512 65.154C32.4454 65.2221 32.5396 65.2147 32.6442 65.2074C32.8326 65.1938 33.0208 65.1739 33.2196 65.1634C33.4498 65.1509 33.6801 65.1414 33.9103 65.1383C34.0777 65.1352 34.2555 65.1425 34.4334 65.1467C34.5485 65.1498 34.674 65.1802 34.7787 65.153C35.0193 65.0933 35.2705 65.1247 35.5112 65.0796C35.6053 65.0618 35.71 65.0503 35.8042 65.0399C36.003 65.0179 36.1912 64.9864 36.3796 64.9812C37.0074 64.9634 37.6457 64.9529 38.2735 64.9446C38.42 64.9425 38.5664 64.9582 38.7129 64.9634C39.1837 64.9791 39.6442 64.9833 40.115 64.9048C40.5231 64.8367 40.9311 64.777 41.3496 64.7833C41.5589 64.7864 41.7681 64.7581 41.9669 64.7393C42.1134 64.7267 42.1867 64.6241 42.1658 64.4838C42.1658 64.4534 42.1448 64.4251 42.1344 64.3968C42.1134 64.3476 42.1344 64.3068 42.1658 64.2691C42.1972 64.2282 42.239 64.1905 42.2704 64.1486C42.3332 64.0774 42.3855 64.0083 42.4378 63.9308C42.6052 63.6816 42.6575 63.4239 42.4901 63.1506C42.4691 63.1024 42.4796 63.0626 42.5215 63.0302C42.6026 62.9585 42.7063 62.9177 42.8145 62.915C42.8773 62.915 42.9401 62.9045 42.9924 62.8689C43.118 62.782 43.254 62.8113 43.39 62.8312C43.4214 62.8354 43.4422 62.8783 43.4213 62.9014C43.4004 62.9328 43.3691 62.959 43.3481 62.9914C43.3377 63.0239 43.3167 63.0616 43.3062 63.0982C43.2958 63.181 43.369 63.2511 43.4527 63.2302C43.474 63.2234 43.495 63.2158 43.5156 63.2072C43.6725 63.1433 43.8294 63.0742 43.9864 63.0176C44.1119 62.9715 44.1956 62.9024 44.2061 62.7579C44.2165 62.6762 44.2584 62.6511 44.3316 62.6731C44.4676 62.7066 44.5933 62.739 44.7084 62.7935C44.97 62.916 45.2419 62.981 45.5349 63.003C45.8697 63.0291 46.1942 63.0982 46.529 63.182C46.8429 63.2627 47.1567 63.3318 47.4811 63.3737C47.5752 63.3862 47.6694 63.4145 47.7636 63.4397C47.8264 63.4564 47.8578 63.4889 47.8474 63.5329C47.8474 63.6051 47.8159 63.6627 47.7531 63.6753C47.7008 63.6889 47.6381 63.6941 47.5753 63.6994C47.4812 63.7057 47.387 63.713 47.3033 63.7119C47.2565 63.7131 47.21 63.7038 47.1672 63.6847C47.0835 63.6449 46.9894 63.6512 46.8952 63.6564C46.7906 63.6627 46.7278 63.7465 46.7487 63.8491C46.7487 63.8983 46.78 63.9371 46.8219 63.957C46.8651 63.9765 46.9109 63.9896 46.9579 63.9957C47.1986 64.0282 47.4393 64.0586 47.6799 64.0156C47.8473 63.9884 48.0042 63.9706 48.1612 63.9539C48.3286 63.9381 48.4646 63.9046 48.5274 63.7235C48.5378 63.6648 48.6111 63.6407 48.6529 63.6564C48.7785 63.6941 48.8832 63.7475 48.9983 63.7957V63.8345C48.9879 63.8482 48.9731 63.8582 48.9564 63.8627C48.6948 63.9675 48.4332 64.0785 48.1507 64.1392C48.0461 64.1623 47.9624 64.1947 47.931 64.3078C47.9101 64.3675 47.8578 64.3843 47.8055 64.3832C47.7427 64.3822 47.6798 64.3801 47.6171 64.3769C47.5485 64.3695 47.479 64.3776 47.4139 64.4004C47.3487 64.4232 47.2895 64.4603 47.2404 64.5089C47.1879 64.5647 47.1213 64.6054 47.0477 64.6268C46.9741 64.6481 46.8961 64.6494 46.8219 64.6304C46.6858 64.6052 46.5395 64.6189 46.4034 64.6241C46.3353 64.6299 46.2683 64.6454 46.2046 64.6702C46.1418 64.6922 46.1104 64.7456 46.1 64.8095C46.0686 64.9268 46.1209 65.0053 46.2465 65.021C46.3092 65.0294 46.372 65.0304 46.4347 65.0325C46.5394 65.0378 46.6441 65.0409 46.7487 65.043C46.8219 65.0451 46.8743 65.065 46.9057 65.1226C46.9789 65.221 47.0731 65.2839 47.1777 65.331C47.2928 65.3792 47.3974 65.3928 47.5125 65.3551C47.6904 65.2996 47.8682 65.2608 48.0461 65.2116C48.1194 65.1917 48.1821 65.1907 48.2553 65.2106C48.3126 65.2307 48.3726 65.242 48.4333 65.2441C48.6844 65.243 48.925 65.286 49.1656 65.3247C49.2347 65.3371 49.3049 65.3424 49.375 65.3404C49.4212 65.3377 49.4645 65.317 49.4958 65.2828C49.5271 65.2486 49.5439 65.2035 49.5424 65.1571C49.5424 65.0828 49.5005 65.02 49.4272 65.0011C49.3958 64.9917 49.354 64.9896 49.3121 64.9833C49.1447 64.954 49.0715 64.8702 49.0505 64.6932C49.0401 64.6555 49.0401 64.6168 49.0296 64.5801C49.0191 64.5361 48.9774 64.4838 48.9878 64.4534C49.0192 64.4 49.082 64.4199 49.1343 64.4178C49.1867 64.4167 49.2493 64.422 49.3017 64.4178C49.3958 64.4094 49.4587 64.444 49.49 64.5445C49.511 64.6178 49.5738 64.6492 49.647 64.6492C49.6889 64.6503 49.7412 64.6503 49.7831 64.6482C49.9191 64.6429 50.0446 64.6566 50.1702 64.7047C50.2748 64.7435 50.3794 64.7508 50.484 64.7393C50.6514 64.7215 50.8293 64.7142 50.9967 64.6943C51.1327 64.6754 51.2897 64.6608 51.4257 64.6168C51.6559 64.5435 51.8861 64.4492 52.1163 64.3633C52.2419 64.3162 52.3779 64.268 52.5035 64.223C52.6918 64.1591 52.8802 64.1329 53.0685 64.1664C53.2569 64.1979 53.4346 64.1602 53.623 64.1329C53.7381 64.1162 53.8428 64.0848 53.9579 64.0659C54.0744 64.0547 54.1843 64.0066 54.2717 63.9287C54.3136 63.8889 54.3764 63.8805 54.4391 63.8607C54.5019 63.8387 54.5333 63.7926 54.5542 63.7276C54.5752 63.646 54.5229 63.5622 54.4391 63.5601C54.2822 63.558 54.1253 63.5528 53.9788 63.5727C53.7172 63.6072 53.4557 63.5768 53.2046 63.5318C53.1435 63.523 53.0838 63.5068 53.0266 63.4836C52.8906 63.4302 52.7546 63.3716 52.6185 63.3129C52.6081 63.3087 52.5976 63.2868 52.5976 63.2784C52.6081 63.2669 52.6186 63.2543 52.6395 63.2522C52.6918 63.2459 52.7546 63.2396 52.8174 63.2386C53.0895 63.2302 53.3614 63.225 53.623 63.2145C53.8741 63.2051 54.1148 63.1936 54.366 63.1778C54.4497 63.1726 54.5228 63.1831 54.5647 63.2805C54.5856 63.314 54.6379 63.3412 54.6798 63.3454C54.7844 63.3569 54.8786 63.3936 54.9728 63.4218C55.046 63.4438 55.1192 63.4501 55.1925 63.4606C55.339 63.4794 55.4855 63.4868 55.6215 63.5454C55.6634 63.5622 55.6738 63.6124 55.6529 63.6407C55.6425 63.646 55.6424 63.6522 55.632 63.6575C55.632 63.6638 55.6215 63.67 55.6215 63.6732C55.5329 63.7288 55.4598 63.8058 55.4086 63.8971C55.3574 63.9884 55.3298 64.0911 55.3285 64.1958C55.3285 64.2492 55.2867 64.2764 55.2344 64.2848C54.9414 64.3361 54.6485 64.3853 54.3555 64.4377C54.1567 64.4712 53.9788 64.5215 53.8218 64.6545C53.7905 64.688 53.7277 64.7058 53.6753 64.7184C53.5916 64.7393 53.4975 64.7508 53.4033 64.7676C53.351 64.7791 53.2882 64.7885 53.2254 64.8074C53.1918 64.8167 53.1627 64.8378 53.1435 64.8669C53.1243 64.8959 53.1162 64.9309 53.1208 64.9655C53.1312 65.0336 53.1836 65.0849 53.2673 65.0849C53.3405 65.0849 53.4032 65.0786 53.4765 65.0671C53.6648 65.0357 53.8532 65.0021 54.0415 64.9634C54.1071 64.9463 54.1763 64.9488 54.2404 64.9707C54.3869 65.0231 54.5228 65.0158 54.6798 64.9896C54.8263 64.9634 54.9833 64.9519 55.1298 64.9362C55.1925 64.9288 55.2553 64.9425 55.2867 65.0126C55.2972 65.0566 55.339 65.0514 55.3809 65.043C55.5901 64.998 55.8099 64.9906 56.0296 64.9917C56.1656 64.9927 56.3016 64.9896 56.4377 65.0147C56.7725 65.0765 57.0236 64.9435 57.2434 64.7204C57.3061 64.6545 57.3688 64.5822 57.4211 64.5089C57.5258 64.3769 57.6513 64.312 57.8188 64.3246C58.164 64.3497 58.4362 64.2146 58.6768 63.9978C58.7084 63.9754 58.7439 63.9591 58.7814 63.9497C58.9174 63.9224 59.043 63.8795 59.179 63.825C59.315 63.7674 59.4511 63.7371 59.5976 63.7318C59.8068 63.7256 60.0161 63.6879 60.2149 63.6282C60.4032 63.5706 60.602 63.5475 60.8008 63.5496C61.0309 63.5528 61.2507 63.5098 61.4599 63.4491C61.6797 63.3862 61.9099 63.3286 62.1296 63.2689C62.3389 63.2114 62.5273 63.115 62.7051 62.9841C62.9144 62.8301 62.9562 62.627 62.9144 62.3903C62.8725 62.2311 62.7993 62.0866 62.7051 61.9567C62.5587 61.7756 62.4226 61.5923 62.2656 61.4153C61.9099 60.9776 61.5541 60.5293 61.2298 60.0644C61.0938 59.8696 60.9264 59.6957 60.7695 59.5135C60.623 59.3313 60.4555 59.1553 60.309 58.97C60.0056 58.5909 59.7126 58.2034 59.4092 57.8295C59.1999 57.5803 58.9802 57.3457 58.7605 57.1101C58.4256 56.7519 58.0804 56.3979 57.7351 56.0419C57.6305 55.9298 57.5467 55.8052 57.463 55.6753C57.3061 55.4386 57.1282 55.2114 56.9608 54.981C56.8457 54.8187 56.7202 54.6616 56.6051 54.4972C56.439 54.2491 56.2381 54.0262 56.0086 53.8353C55.7575 53.6311 55.496 53.43 55.2448 53.23C54.9309 52.9818 54.6485 52.7064 54.366 52.4131C54.1888 52.2216 54.031 52.0128 53.895 51.79C53.6962 51.4716 53.4765 51.1658 53.2463 50.8684C53.0789 50.6611 52.9325 50.4495 52.7755 50.2401C52.1896 49.4337 51.5094 48.7132 50.7456 48.0723C50.5572 47.9152 50.369 47.7476 50.1911 47.5842C50.0342 47.4408 49.8667 47.2973 49.7097 47.1496C49.626 47.0659 49.5319 46.9768 49.4586 46.8805C49.3121 46.6909 49.1657 46.5108 48.9669 46.3715C48.8413 46.2867 48.7576 46.1725 48.6634 46.0542C48.4903 45.8057 48.2459 45.6158 47.9625 45.5096C47.7532 45.4321 47.523 45.384 47.2928 45.3505C46.9673 45.3001 46.6385 45.2742 46.3092 45.273C46.1313 45.273 46.0058 45.3651 45.8593 45.4363C45.7547 45.5777 45.65 45.7212 45.6395 45.9076C45.6344 45.9184 45.6319 45.9302 45.6319 45.9422C45.6319 45.9541 45.6344 45.9659 45.6395 45.9767C45.6709 46.2207 45.535 46.3652 45.3466 46.4794C45.2315 46.5464 45.1164 46.6051 45.0013 46.6658C44.9594 46.6867 44.9176 46.7098 44.8757 46.7234C44.7606 46.7601 44.6456 46.6501 44.6665 46.5244C44.6852 46.4576 44.7257 46.399 44.7816 46.3579C44.8758 46.3003 44.9595 46.2354 45.0641 46.1945C45.2001 46.1359 45.3047 46.0374 45.3779 45.9086C45.3989 45.8688 45.4303 45.8322 45.4513 45.7924C45.4826 45.7432 45.4721 45.7118 45.4198 45.6824C45.2568 45.5966 45.0795 45.5412 44.8967 45.5191C44.7645 45.5077 44.6317 45.5042 44.4991 45.5086C44.3107 45.5128 44.2166 45.5966 44.1852 45.7809V45.8018C44.1957 45.983 44.1015 46.1055 43.9759 46.2176C43.8608 46.315 43.7666 46.426 43.6724 46.5391C43.5364 46.7066 43.3482 46.8156 43.1389 46.8847C42.4797 47.1025 41.9042 47.4523 41.3601 47.8754C41.2555 47.955 41.1613 48.0492 41.0671 48.1393C40.9953 48.2 40.9503 48.2865 40.9415 48.3802C40.9415 48.4922 40.8788 48.5854 40.8264 48.6765C40.6067 49.0127 40.3975 49.3499 40.1777 49.6829C40.0208 49.9071 39.8639 50.127 39.7069 50.3427C39.5918 50.4987 39.4662 50.6443 39.3511 50.793C39.3302 50.8244 39.3407 50.8485 39.372 50.8621C39.4348 50.8862 39.4872 50.8779 39.55 50.8506C39.686 50.7878 39.822 50.7323 39.9476 50.6705C40.0941 50.6056 40.2406 50.5616 40.3871 50.5365C40.4424 50.5272 40.4984 50.524 40.5544 50.527C40.6381 50.5344 40.7009 50.5951 40.7218 50.6841C40.7337 50.7257 40.7307 50.7701 40.7135 50.8098C40.6964 50.8495 40.6661 50.8821 40.6277 50.9019C40.5822 50.927 40.5326 50.9437 40.4812 50.9512C40.1359 51.0098 39.8429 51.169 39.55 51.3407C39.5395 51.3481 39.5185 51.3575 39.5081 51.3669C39.2779 51.5659 38.9955 51.6581 38.692 51.6937C38.4922 51.7175 38.2932 51.7483 38.0956 51.7858C37.9491 51.8141 37.7922 51.8434 37.6457 51.901C37.1539 52.1052 36.662 52.3304 36.2121 52.6341C36.1703 52.6634 36.1284 52.6938 36.0866 52.7283C36.0541 52.7513 36.0258 52.7796 36.0029 52.8121C35.9591 52.9431 35.8701 53.0541 35.7518 53.1253C35.7204 53.1441 35.6995 53.1975 35.6786 53.2373C35.5217 53.5169 35.3333 53.7662 35.1345 54.0102C34.9776 54.1935 34.8415 54.3893 34.7055 54.5862C34.559 54.8051 34.4543 55.0438 34.3811 55.2983C34.3078 55.5643 34.2241 55.8293 34.1509 56.0963C34.0986 56.2984 34.0149 56.488 33.9103 56.6639C33.7742 56.8723 33.6382 57.0786 33.4917 57.2766C33.2929 57.5509 33.136 57.8515 33.0419 58.1783C32.9686 58.3982 32.8849 58.6139 32.7907 58.8255C32.7384 58.9501 32.6651 59.0684 32.5814 59.1794C32.414 59.4035 32.2256 59.6067 32.0268 59.7973C31.9013 59.9177 31.7862 60.0518 31.6606 60.1827C31.5351 60.3251 31.4095 60.4696 31.284 60.6152C31.2107 60.7032 31.1271 60.7901 31.0643 60.8864C30.9701 61.0362 30.8549 61.1671 30.7189 61.2813C30.5515 61.4195 30.4051 61.5755 30.2795 61.7557C30.2272 61.8374 30.1749 61.9264 30.1435 62.0196C30.1017 62.1473 30.0388 62.2604 29.9656 62.3673C29.9081 62.4396 29.8655 62.5225 29.84 62.6113C29.8301 62.6487 29.8118 62.6834 29.7864 62.7126C29.761 62.7418 29.7292 62.7648 29.6935 62.7799C29.6308 62.8144 29.5576 62.8469 29.4843 62.8773C29.3483 62.938 29.2332 63.0155 29.1704 63.1663C29.1494 63.2386 29.0971 63.2742 29.0239 63.2888C28.9506 63.3046 28.867 63.3213 28.7937 63.3423C28.6682 63.3768 28.574 63.4428 28.5321 63.5737C28.5007 63.668 28.438 63.7077 28.3543 63.7339C28.0928 63.8135 27.8312 63.8837 27.5696 63.9245C27.465 63.9413 27.3603 63.957 27.2452 63.9779C27.1196 64.0041 26.9941 64.0492 26.8895 64.1172C26.7851 64.1722 26.7036 64.2623 26.6593 64.3717C26.607 64.4963 26.6383 64.6011 26.7534 64.6712C26.7927 64.6958 26.8349 64.7155 26.879 64.7299C27.0569 64.777 27.2347 64.843 27.4126 64.8629C27.8102 64.9048 28.2079 64.955 28.6159 64.9477C28.6682 64.9466 28.7309 64.9466 28.7937 64.9404C28.8285 64.9379 28.8624 64.9281 28.8931 64.9114C28.9238 64.8948 28.9506 64.8718 28.9716 64.844C28.9937 64.82 29.0102 64.7915 29.0202 64.7604C29.0301 64.7294 29.0332 64.6965 29.0292 64.6642C29.0253 64.6318 29.0144 64.6007 28.9972 64.573C28.98 64.5453 28.9569 64.5216 28.9297 64.5037C28.867 64.4639 28.8043 64.4345 28.7519 64.4021C28.6996 64.3759 28.6473 64.3529 28.6054 64.3246C28.595 64.3193 28.595 64.2963 28.595 64.2848C28.6054 64.2733 28.6158 64.2607 28.6263 64.2586C28.6577 64.2544 28.6891 64.2513 28.7205 64.2544C29.2437 64.3131 29.7668 64.2586 30.2795 64.1706C30.447 64.1424 30.6143 64.1078 30.7818 64.0722C30.9282 64.0387 31.0747 63.9769 31.1479 63.825C31.1793 63.7643 31.2421 63.7444 31.3049 63.7413C31.3677 63.7381 31.4409 63.735 31.5141 63.7339C31.8908 63.7297 32.2781 63.7276 32.6652 63.7245H32.7593C32.9163 63.7287 33.0628 63.691 33.1674 63.5538C33.1988 63.5088 33.2406 63.5088 33.2825 63.537C33.3139 63.5528 33.3347 63.5695 33.3557 63.5894C33.4185 63.6386 33.4499 63.6973 33.408 63.7727C33.3767 63.8376 33.3662 63.9036 33.408 63.9696C33.429 63.9999 33.4604 64.0355 33.4604 64.0638C33.4499 64.1183 33.3975 64.1183 33.3452 64.1235C33.0627 64.1654 32.7698 64.201 32.4768 64.2041C32.0373 64.2083 31.6084 64.2743 31.1794 64.3895C30.9387 64.4555 30.698 64.5424 30.4573 64.623C30.3983 64.6427 30.3421 64.6698 30.29 64.7037C30.2532 64.7287 30.2211 64.7603 30.1958 64.7969C30.0911 64.9425 30.1539 65.0943 30.3318 65.1121C30.405 65.1194 30.4888 65.1163 30.5621 65.1163H31.3049ZM50.4108 58.7249C50.5573 58.7364 50.7142 58.7343 50.8711 58.7626C51.1746 58.8202 51.4885 58.8548 51.8024 58.8831C51.8652 58.8883 51.928 58.8956 51.9803 58.9113C52.0954 58.9417 52.1477 59.0328 52.1373 59.1375C52.1164 59.2475 52.043 59.3103 51.9279 59.3114C51.9035 59.3114 51.8791 59.3103 51.8548 59.3082C51.5618 59.2737 51.2584 59.2517 50.9654 59.2025C50.5469 59.1323 50.1283 59.1333 49.7097 59.2423C49.3749 59.3302 49.0296 59.3564 48.6844 59.3533C48.6316 59.3529 48.579 59.3473 48.5274 59.3365C48.4123 59.3103 48.3704 59.2108 48.4018 59.104C48.4332 59.0077 48.517 58.9543 48.6112 58.9386C48.6844 58.9249 48.7576 58.926 48.8413 58.9239C49.1238 58.9145 49.4168 58.8925 49.6993 58.8181C49.9295 58.7563 50.1702 58.7239 50.4108 58.7249ZM42.8145 52.1168C42.825 52.0864 42.8355 52.0403 42.8564 51.9995C42.8982 51.9104 42.9506 51.8214 43.0029 51.7376C43.1598 51.4863 43.3272 51.235 43.4946 50.9899C43.9132 50.4045 44.3108 49.8128 44.6665 49.1928C44.6893 49.1519 44.7174 49.1143 44.7502 49.0808C44.8339 48.9844 44.9804 49.0221 45.0117 49.1509C45.0327 49.2054 45.0327 49.2578 45.0117 49.308C44.9699 49.3782 44.9385 49.4473 44.9071 49.5133C44.656 49.9353 44.3944 50.3553 44.1119 50.7595C43.8608 51.1261 43.6202 51.4978 43.3691 51.8665C43.3063 51.9555 43.2435 52.0455 43.1807 52.1283C43.1388 52.1806 43.076 52.2225 43.0237 52.2623C42.9819 52.2906 42.94 52.2906 42.8877 52.2665C42.8354 52.2372 42.825 52.189 42.8145 52.1168ZM39.5709 64.2942V64.3131C39.4977 64.3131 39.4245 64.3152 39.3407 64.312C39.3303 64.311 39.2884 64.2974 39.2884 64.2837C39.2779 64.2586 39.2884 64.2188 39.2989 64.2021C39.3826 64.1172 39.4662 64.0418 39.5395 63.9559C39.665 63.8125 39.8324 63.7434 40.0208 63.6931C40.1777 63.647 40.3452 63.6313 40.5126 63.6323C40.5754 63.6334 40.6381 63.6407 40.6904 63.6826C40.7637 63.7444 40.8578 63.7591 40.9415 63.7727C41.0357 63.7852 41.1299 63.7989 41.2136 63.8177C41.3078 63.8376 41.3287 63.869 41.3391 63.958C41.3496 64.0492 41.3287 64.0889 41.2345 64.1047C41.1299 64.1256 41.0149 64.1434 40.8998 64.1623C40.7428 64.1874 40.5858 64.2209 40.4184 64.2356C40.1359 64.2617 39.8534 64.2754 39.5709 64.2942ZM41.559 53.1022C41.7159 53.1085 41.7891 53.2405 41.7367 53.3609C41.7158 53.4373 41.653 53.4866 41.5902 53.5347C41.2973 53.7725 40.9729 53.9641 40.659 54.1683C40.6014 54.2043 40.5375 54.2292 40.4707 54.2416C40.3556 54.2626 40.2719 54.1641 40.3033 54.0563C40.3242 54.006 40.3452 53.9536 40.3766 53.9159C40.4394 53.8489 40.5126 53.7861 40.5858 53.7337C40.8579 53.54 41.1404 53.3504 41.4229 53.163C41.4752 53.1294 41.5276 53.1137 41.559 53.1022ZM32.8325 63.3381C32.8011 63.3339 32.7698 63.3349 32.7489 63.3276C32.7175 63.315 32.686 63.2909 32.686 63.2459C32.686 63.2113 32.7279 63.1852 32.7698 63.1904L32.843 63.204C32.8848 63.2197 32.9372 63.2773 32.9163 63.2962C32.8954 63.3182 32.8534 63.3286 32.8325 63.3381ZM34.3393 47.2177L37.7608 47.1423C38.9431 47.1151 40.1254 47.0837 41.3182 47.0585C41.4549 47.0566 41.5887 47.0179 41.7053 46.9465C42.3122 46.5716 42.9191 46.1998 43.5364 45.827C43.5573 45.8112 43.5888 45.7955 43.6097 45.7746C43.6202 45.761 43.6202 45.7306 43.6097 45.7159C43.5992 45.6898 43.5783 45.6699 43.5573 45.6479C43.2958 45.3944 43.0342 45.142 42.7831 44.8876C42.3541 44.4645 41.8938 44.0759 41.4334 43.6989C41.0253 43.3701 40.6172 43.0413 40.2196 42.703C39.7697 42.3187 39.2779 41.9909 38.7757 41.6735C38.6815 41.6149 38.5873 41.5583 38.5036 41.5028C38.3048 41.3876 38.127 41.2588 37.97 41.1018C37.9062 41.0347 37.8212 40.9918 37.7294 40.9803C37.675 40.9767 37.6234 40.9549 37.5829 40.9185C37.4992 40.8483 37.4155 40.8431 37.3213 40.8452C36.9237 40.8567 36.5261 40.8693 36.1285 40.8776C35.8355 40.8839 35.553 40.885 35.2705 40.8902L32.4873 40.9447L30.5202 40.9845C29.725 41.0012 28.9193 41.0159 28.124 41.0337C28.0467 41.0366 27.9697 41.046 27.8939 41.062C27.8482 41.068 27.8048 41.0861 27.7683 41.1143C27.6742 41.218 27.5487 41.2714 27.444 41.3678C27.2976 41.5144 27.2033 41.6997 27.1301 41.8998C27.0673 42.1134 27.0359 42.3354 27.0045 42.5553C26.9627 42.8748 26.9104 43.1942 26.879 43.5157C26.8476 43.7984 26.8371 44.0833 26.8266 44.3671C26.8057 44.5587 26.7953 44.7504 26.7849 44.9431C26.7744 45.0803 26.7744 45.2196 26.7639 45.3578C26.7639 45.7662 26.7848 46.1725 26.8161 46.5789C26.8371 46.7464 26.879 46.9119 26.9104 47.0784C26.9209 47.135 26.9522 47.1737 27.0045 47.1989C27.0464 47.2208 27.0987 47.2407 27.1406 47.2763C27.2347 47.3664 27.3498 47.3905 27.4858 47.3863C27.7369 47.38 27.988 47.3779 28.2391 47.3727L30.0911 47.3277L33.8684 47.2355C34.0567 47.2303 34.2347 47.2208 34.3393 47.2177ZM64.2537 40.31L62.8516 40.3341C61.2124 40.3645 59.573 40.3962 57.9338 40.4294L56.5737 40.464C56.5423 40.464 56.5213 40.4692 56.4899 40.4744C56.4794 40.4744 56.4691 40.4797 56.4691 40.4849C56.4691 40.4912 56.4691 40.5027 56.4796 40.5069C56.5005 40.531 56.5318 40.5519 56.5632 40.576C56.5946 40.6012 56.6364 40.6242 56.6469 40.6567C56.6678 40.7541 56.7515 40.8054 56.8143 40.864C57.2956 41.2578 57.7665 41.6495 58.2373 42.0474C58.4047 42.1909 58.5721 42.3438 58.729 42.4936C59.0848 42.8077 59.4511 43.0957 59.8277 43.3816C60.2358 43.6948 60.6439 44.0089 61.052 44.3262C61.2299 44.4687 61.4077 44.6195 61.5752 44.7703C61.8786 45.03 62.182 45.297 62.4855 45.5515C62.7575 45.7767 63.0399 45.9945 63.3224 46.2082C63.6049 46.4176 63.9084 46.5181 64.2641 46.5056C65.2268 46.471 66.1894 46.4501 67.152 46.426C67.5601 46.4155 67.9682 46.4124 68.3658 46.404L70.3956 46.3558C71.2013 46.3349 71.9965 46.3118 72.8022 46.2919C73.0219 46.2857 73.2417 46.2846 73.4614 46.2815C73.5242 46.2815 73.5764 46.2815 73.6287 46.2773C73.7752 46.2668 73.8903 46.1924 73.9427 46.049C73.974 45.9526 74.0264 45.8699 74.0787 45.7851C74.2356 45.539 74.3194 45.2677 74.3612 44.985C74.4449 44.5493 74.4345 44.1126 74.3717 43.6759C74.2881 42.9559 74.0679 42.2585 73.723 41.6212C73.5854 41.3624 73.4205 41.1191 73.2311 40.8954C73.0977 40.7359 72.9468 40.5919 72.7812 40.4661C72.4987 40.2514 72.1848 40.1404 71.8186 40.1487C70.8769 40.1697 69.9457 40.1854 69.004 40.2043L66.9323 40.2461L64.4421 40.2964H64.2537V40.31ZM62.1506 44.9954L62.161 45.0017L62.1506 44.9912L62.1401 44.9871C62.1401 44.9902 62.1401 44.9923 62.1506 44.9954ZM62.3285 45.1326C62.3494 45.1483 62.3598 45.164 62.3807 45.1797L62.3912 45.1871L62.3807 45.1756C62.3703 45.1599 62.3494 45.1441 62.3389 45.1295L62.318 45.119L62.3285 45.1326ZM62.0878 38.6616L55.3809 38.6826C54.9728 38.6847 54.5647 38.6931 54.1566 38.7004C54.1148 38.7004 54.0834 38.7067 54.0415 38.7151C54.0311 38.7161 54.0311 38.7412 54.0311 38.7507L54.0625 38.8072C54.1148 38.8596 54.1671 38.9067 54.209 38.9643C54.3136 39.1361 54.4811 39.2492 54.6485 39.356C55.0356 39.6031 55.4332 39.8503 55.8099 40.1027C55.925 40.1739 56.0296 40.2011 56.1656 40.199C57.0027 40.1865 57.8398 40.1781 58.6768 40.1676L62.2447 40.1215L65.9173 40.0744C67.0683 40.0597 68.2193 40.0451 69.3702 40.0283C69.9352 40.021 70.5107 40.0105 71.0757 39.999C71.1594 39.9979 71.2431 39.9917 71.3268 39.9822C71.3792 39.977 71.4105 39.9466 71.421 39.8953C71.4441 39.8175 71.4487 39.7353 71.4341 39.6554C71.4196 39.5755 71.3864 39.5002 71.3373 39.4356C71.2327 39.2743 71.1071 39.1319 70.9502 39.0104C70.6939 38.7645 70.353 38.6265 69.998 38.625C68.575 38.6292 67.152 38.6302 65.729 38.6376C64.5153 38.6438 63.3016 38.6554 62.0878 38.6648V38.6616ZM32.8012 40.5111C33.6278 40.4954 34.3497 40.4797 35.0717 40.4692C35.689 40.4608 36.3168 40.4587 36.9342 40.4535C36.9969 40.4535 37.0598 40.4535 37.1225 40.4504C37.29 40.4451 37.3108 40.4085 37.2167 40.2619C37.1428 40.1544 37.0624 40.0516 36.976 39.954C36.6674 39.6305 36.3351 39.3305 35.982 39.0565C35.8967 38.9889 35.813 38.9194 35.7309 38.8481C35.7051 38.8217 35.6741 38.8012 35.6398 38.7878C35.6055 38.7745 35.5689 38.7686 35.5321 38.7706C35.0822 38.7758 34.6322 38.7779 34.1928 38.7831C34.0568 38.7831 33.9312 38.7905 33.7952 38.7915C33.136 38.7936 32.4768 38.7936 31.8176 38.7967C30.8027 38.7999 29.7982 38.8051 28.7937 38.8093C28.5426 38.8114 28.5426 38.8156 28.4171 39.0334C28.302 39.2324 28.2496 39.444 28.2496 39.6733C28.2601 39.7885 28.2601 39.9037 28.2706 40.0189C28.281 40.1927 28.3648 40.3414 28.4485 40.487C28.4799 40.531 28.5217 40.5498 28.5636 40.5519C28.6368 40.5519 28.71 40.554 28.7728 40.5519C29.7982 40.5394 30.8236 40.5237 31.8386 40.5111C32.1943 40.5069 32.5501 40.5111 32.8012 40.5111ZM69.004 58.9281C69.0145 59.0192 69.0145 59.0883 69.0355 59.1553C69.0773 59.3543 69.2133 59.4769 69.4121 59.4967C69.5437 59.5098 69.6764 59.4912 69.7993 59.4423C69.9981 59.3669 70.1759 59.2611 70.3434 59.1396C70.6782 58.8967 70.992 58.6171 71.2745 58.3113C71.7872 57.751 72.2476 57.1425 72.5929 56.4545C72.7184 56.1989 72.8231 55.9361 72.8649 55.6512C72.8895 55.5296 72.8823 55.4037 72.844 55.2857C72.7812 55.0794 72.6453 54.9653 72.4255 54.9632C72.3407 54.961 72.2561 54.9716 72.1744 54.9946C71.9861 55.0512 71.8187 55.1266 71.6513 55.2386C71.2641 55.5088 70.9188 55.8251 70.6049 56.1707C70.1027 56.7079 69.6632 57.2912 69.3283 57.9447C69.2237 58.151 69.1295 58.3615 69.0667 58.5856C69.0354 58.705 69.025 58.8265 69.004 58.9281Z" fill="black"/>
<path id="Vector_4" d="M66.6183 61.5689C66.61 61.7694 66.6571 61.9683 66.7544 62.1438C66.8171 62.2496 66.9218 62.3051 67.0474 62.302C67.1072 62.3002 67.1666 62.2932 67.2252 62.281C67.9157 62.1459 68.5436 61.8695 69.14 61.5029C69.8618 61.0465 70.5198 60.4961 71.0966 59.8661C71.6417 59.2704 72.1125 58.6107 72.4987 57.9014C72.6452 57.6228 72.7812 57.3369 72.8858 57.0416C72.8963 57.0144 72.9067 56.9777 72.8963 56.9537C72.8734 56.8991 72.8454 56.8469 72.8126 56.7976C72.8126 56.7945 72.7812 56.8018 72.7707 56.8112C72.7393 56.8688 72.6975 56.9285 72.6661 56.9893C72.2999 57.6543 71.8709 58.2669 71.3268 58.7979C70.9501 59.1644 70.5316 59.4733 70.0503 59.6943C69.7364 59.8357 69.412 59.9299 69.0772 59.9593C68.8888 59.975 68.6901 59.9938 68.5018 59.998C68.3867 60.0012 68.2715 59.9844 68.1564 59.9656C68.0062 59.9392 67.8519 59.9496 67.7066 59.9959C67.4764 60.0703 67.2775 60.1959 67.1101 60.3803C66.8904 60.64 66.7335 60.9385 66.6498 61.2725C66.6288 61.3678 66.6288 61.4694 66.6183 61.5689ZM44.949 63.3733C44.8235 63.366 44.7502 63.3597 44.677 63.3566C44.6265 63.3515 44.5756 63.3585 44.5283 63.3768C44.481 63.3952 44.4387 63.4245 44.4049 63.4623C44.3421 63.5335 44.2689 63.5545 44.1852 63.566C44.0597 63.5838 43.9235 63.6173 43.798 63.6445C43.6781 63.6673 43.5663 63.7211 43.4737 63.8006C43.4204 63.846 43.3548 63.8745 43.2853 63.8823C43.1702 63.9074 43.0447 63.9378 42.9296 63.9765C42.7412 64.0383 42.6889 64.1933 42.7935 64.3598C42.8668 64.4803 42.9715 64.5536 43.118 64.5494C43.2017 64.5473 43.2853 64.5619 43.3586 64.6049C43.4318 64.6489 43.5155 64.6635 43.5992 64.6332C43.6411 64.6185 43.6934 64.6185 43.7353 64.6185C44.0282 64.6206 44.3212 64.608 44.6141 64.5745C44.7711 64.5557 44.9281 64.5756 45.0955 64.5829C45.2002 64.5881 45.3047 64.6028 45.4093 64.6101C45.6395 64.6258 45.8593 64.564 46.0581 64.474C46.1192 64.4492 46.1748 64.4125 46.2215 64.3659C46.2683 64.3193 46.3052 64.2638 46.3301 64.2027C46.4034 64.0257 46.3405 63.8624 46.1731 63.7744C46.1096 63.7455 46.0429 63.7241 45.9744 63.7105C45.8693 63.6842 45.77 63.6388 45.6814 63.5765C45.5027 63.4291 45.2741 63.3563 45.0432 63.3733C44.9908 63.3764 44.949 63.3733 44.949 63.3733ZM31.0329 66.4721C31.1689 66.4459 31.3154 66.4376 31.4514 66.3894C31.6712 66.313 31.8804 66.2135 32.0792 66.115C32.1838 66.0689 32.257 65.9946 32.2989 65.8909C32.3512 65.7757 32.3303 65.6689 32.2257 65.6134C31.8909 65.4479 31.5561 65.383 31.2003 65.5181C31.1149 65.5523 31.0393 65.6074 30.9805 65.6783C30.8968 65.7883 30.8132 65.893 30.6981 65.9705C30.6249 66.0134 30.5935 66.0846 30.5725 66.1611C30.5516 66.2784 30.5935 66.3842 30.7086 66.4187C30.8132 66.4491 30.9178 66.4543 31.0329 66.4721ZM50.1806 66.1391C50.348 66.1339 50.4945 66.0658 50.62 65.9935C50.7142 65.9475 50.7456 65.8563 50.7351 65.7579C50.7351 65.6521 50.6619 65.5945 50.5678 65.561C50.5028 65.5355 50.4364 65.5138 50.3689 65.4961C50.2761 65.4723 50.1781 65.4807 50.0907 65.5199C50.0033 65.5591 49.9317 65.6267 49.8876 65.7118C49.8039 65.8752 49.8667 66.0375 50.0341 66.1066C50.0865 66.1255 50.1388 66.1297 50.1806 66.1391ZM41.8728 65.9537C41.9669 65.9359 42.0821 65.9244 42.1762 65.894C42.3018 65.8584 42.3645 65.7684 42.3645 65.6574C42.3648 65.5949 42.3445 65.5341 42.3066 65.4845C42.2688 65.4349 42.2155 65.3992 42.1553 65.383C42.0324 65.3486 41.9028 65.3461 41.7786 65.3757C41.6217 65.4102 41.5275 65.5202 41.4542 65.6521C41.4437 65.6898 41.4437 65.7422 41.4437 65.7862C41.4437 65.8344 41.4752 65.8762 41.5275 65.8867C41.6322 65.9139 41.7472 65.9317 41.8728 65.9537ZM45.2524 65.672C45.3675 65.6553 45.5035 65.6385 45.629 65.6176C45.7232 65.6029 45.7755 65.538 45.7965 65.45C45.8174 65.3641 45.8175 65.2793 45.7442 65.2154C45.6705 65.1482 45.5802 65.1019 45.4827 65.0814C45.3676 65.0583 45.2733 65.0981 45.2419 65.2081C45.2261 65.2992 45.1822 65.3831 45.1163 65.4479C45.0954 65.4689 45.0955 65.5024 45.085 65.5317C45.0746 65.6081 45.1164 65.6678 45.2001 65.672H45.2524ZM51.3838 65.6176C51.3943 65.649 51.3943 65.7034 51.4152 65.7516C51.4571 65.8406 51.5826 65.8563 51.6559 65.7851C51.6768 65.7631 51.6978 65.737 51.6978 65.7097C51.7344 65.5996 51.7344 65.4806 51.6978 65.3704C51.6873 65.3568 51.6768 65.3432 51.6768 65.3306C51.614 65.2427 51.499 65.2406 51.4466 65.3296C51.4275 65.3626 51.4134 65.3982 51.4048 65.4353C51.3943 65.4877 51.3943 65.5422 51.3838 65.6176ZM53.0161 64.7923C53.0057 64.651 52.922 64.5818 52.786 64.6185C52.7421 64.6329 52.7 64.6522 52.6604 64.6761C52.6398 64.6923 52.6234 64.7133 52.6125 64.7371C52.6016 64.761 52.5964 64.7871 52.5976 64.8133C52.5976 64.8698 52.6394 64.918 52.6917 64.9264C52.7545 64.9358 52.8069 64.941 52.8696 64.9473C52.9533 64.9547 53.0057 64.9149 53.0057 64.8363C53.0138 64.8232 53.0175 64.8077 53.0161 64.7923ZM15.0869 71.9032C15.1392 71.9053 15.181 71.8686 15.1706 71.8215C15.1706 71.7733 15.1288 71.7356 15.0869 71.7419C15.0451 71.7482 15.0137 71.7733 15.0137 71.8142C15.0033 71.8623 15.0346 71.9011 15.0869 71.9032Z" fill="black"/>
</g>
</svg>
