<svg width="139" height="129" viewBox="0 0 139 129" fill="none" xmlns="http://www.w3.org/2000/svg">
<path d="M4 11.2819C4 13.3218 2.66667 19.2147 2 21.9062L5.5 22.3308C6.7 19.271 9.33333 17.9394 10.5 17.6561H21.5C27.1 17.9953 28.5 14.681 28.5 12.9815C26.5 4.82207 30 1.08257 32 0.232752C29.2 -0.787173 26.5 1.79097 25.5 3.20753C23.1 8.30716 19.8333 9.01544 18.5 8.73213C14.9 6.69228 17 3.34919 18.5 1.93263C12.9 3.6325 11.8333 8.02385 12 10.007C8.80003 8.98711 9.66668 5.61569 10.5 4.05747C8.1 6.77727 7.5 11.7069 7.5 13.8318C5.5 13.8318 4.33333 12.1319 4 11.2819Z" fill="#0E0A00"/>
<path d="M49 100.95L42.5 97.9773V112.424L32 114.974L36 115.399L28 116.674V117.524L38 116.674L34.5 119.649L35.5 120.499L42.5 116.249L48 117.099L44 112.849L49 100.95Z" fill="#0E0A00"/>
<path fill-rule="evenodd" clip-rule="evenodd" d="M12 53.3555C15.6 48.5959 15.1667 37.49 14.5 32.5321C14.6502 34.798 13.6604 39.4149 8.5 39.7549C3.33957 40.0948 2.01649 35.0813 2 32.5321H6V28.2807H4L0 30.4072L2 25.3059H6C7.6 21.2249 15.6667 19.9224 19.5 19.7813C32.3 21.8206 35.1667 35.3644 35 41.8814C35.4 49.3608 39.8333 52.0795 42 52.5039C52 57.6036 62.5 54.6288 66.5 52.5039C65.3 31.0855 79.3333 20.0651 86.5 17.2322C112.1 8.05283 132.167 25.3073 139 35.0819C111.8 23.8627 99.6667 27.2908 97 30.4072C114.2 27.6874 120.167 33.5237 121 36.7818C113 31.0022 101.667 33.2403 97 35.0819C108.6 35.4219 113.833 39.7565 115 41.8814C109.4 38.4816 100.667 40.4648 97 41.8814C105.4 42.9013 109.167 47.1227 110 49.1059C105.2 47.066 99.3333 48.2559 97 49.1059C105.4 50.4658 109.167 55.6221 110 58.0302C105.2 54.6305 99.3333 55.1971 97 55.9054C101 57.9452 104 63.5548 105 66.1046C101.4 62.0249 96.5 61.8549 94.5 62.2799C98.1 67.0396 97.6667 71.3459 97 72.9041C97 69.5044 92.3333 66.9546 90 66.1046V71.2042L86.5 72.9041C87.3 82.4234 79.1667 91.8861 75 95.4275C74 96.2774 71.2 98.9972 68 103.077C64.8 107.157 63 116.393 62.5 120.501L68 124.75H59.5L51 129L54.5 124.75H42L45.5 122.201H54.5L48 120.501L59.5 118.801C66.3 107.242 56.6667 100.102 51 97.9773C27 91.1778 15 78.4287 12 72.9041C10.5 68.3711 8.40001 58.1152 12 53.3555ZM59 66.1046C59.3333 68.0865 62.3 72.1355 71.5 72.4771C68 70.353 60.6 66.1046 59 66.1046ZM38.5 75.8769C22.9 69.0774 33.3333 60.578 40.5 57.1782C17.7 63.6361 27.6667 74.0347 35.5 78.4267C53.5 84.2046 66.3333 80.2675 70.5 77.5767C58.9 80.2965 44.3333 77.5767 38.5 75.8769Z" fill="#0E0A00"/>
</svg>
