<svg width="139" height="129" viewBox="0 0 139 129" fill="none" xmlns="http://www.w3.org/2000/svg">
<path d="M135 11.2819C135 13.3218 136.333 19.2147 137 21.9062L133.5 22.3308C132.3 19.271 129.667 17.9394 128.5 17.6561H117.5C111.9 17.9953 110.5 14.681 110.5 12.9815C112.5 4.82207 109 1.08257 107 0.232752C109.8 -0.787173 112.5 1.79097 113.5 3.20753C115.9 8.30716 119.167 9.01544 120.5 8.73213C124.1 6.69228 122 3.34919 120.5 1.93263C126.1 3.6325 127.167 8.02385 127 10.007C130.2 8.98711 129.333 5.61569 128.5 4.05747C130.9 6.77727 131.5 11.7069 131.5 13.8318C133.5 13.8318 134.667 12.1319 135 11.2819Z" fill="#0E0A00"/>
<path d="M90 100.95L96.5 97.9773V112.424L107 114.974L103 115.399L111 116.674V117.524L101 116.674L104.5 119.649L103.5 120.499L96.5 116.249L91 117.099L95 112.849L90 100.95Z" fill="#0E0A00"/>
<path fill-rule="evenodd" clip-rule="evenodd" d="M127 53.3555C123.4 48.5959 123.833 37.49 124.5 32.5321C124.35 34.798 125.34 39.4149 130.5 39.7549C135.66 40.0948 136.984 35.0813 137 32.5321H133V28.2807H135L139 30.4072L137 25.3059H133C131.4 21.2249 123.333 19.9224 119.5 19.7813C106.7 21.8206 103.833 35.3644 104 41.8814C103.6 49.3608 99.1667 52.0795 97 52.5039C87 57.6036 76.5 54.6288 72.5 52.5039C73.7 31.0855 59.6667 20.0651 52.5 17.2322C26.9 8.05283 6.83333 25.3073 0 35.0819C27.2 23.8627 39.3333 27.2908 42 30.4072C24.8 27.6874 18.8333 33.5237 18 36.7818C26 31.0022 37.3333 33.2403 42 35.0819C30.4 35.4219 25.1667 39.7565 24 41.8814C29.6 38.4816 38.3333 40.4648 42 41.8814C33.6 42.9013 29.8333 47.1227 29 49.1059C33.8 47.066 39.6667 48.2559 42 49.1059C33.6 50.4658 29.8333 55.6221 29 58.0302C33.8 54.6305 39.6667 55.1971 42 55.9054C38 57.9452 35 63.5548 34 66.1046C37.6 62.0249 42.5 61.8549 44.5 62.2799C40.9 67.0396 41.3333 71.3459 42 72.9041C42 69.5044 46.6667 66.9546 49 66.1046V71.2042L52.5 72.9041C51.7 82.4234 59.8333 91.8861 64 95.4275C65 96.2774 67.8 98.9972 71 103.077C74.2 107.157 76 116.393 76.5 120.501L71 124.75H79.5L88 129L84.5 124.75H97L93.5 122.201H84.5L91 120.501L79.5 118.801C72.7 107.242 82.3333 100.102 88 97.9773C112 91.1778 124 78.4287 127 72.9041C128.5 68.3711 130.6 58.1152 127 53.3555ZM80 66.1046C79.6667 68.0865 76.7 72.1355 67.5 72.4771C71 70.353 78.4 66.1046 80 66.1046ZM100.5 75.8769C116.1 69.0774 105.667 60.578 98.5 57.1782C121.3 63.6361 111.333 74.0347 103.5 78.4267C85.5 84.2046 72.6667 80.2675 68.5 77.5767C80.1 80.2965 94.6667 77.5767 100.5 75.8769Z" fill="#0E0A00"/>
</svg>
