<svg width="591" height="322" viewBox="0 0 591 322" fill="none" xmlns="http://www.w3.org/2000/svg">
<path d="M581.362 206.736C581.362 206.736 579.616 208.445 579.616 214.205C579.616 222.331 585.679 227.797 585.679 236.227C585.679 242.524 580.682 245.95 580.682 245.95V246.021C584.101 246.021 586.936 248.875 586.936 252.394C586.936 255.914 584.175 258.768 580.76 258.768V258.817C584.175 258.817 586.949 261.67 586.949 265.19C586.949 268.709 584.175 271.563 580.76 271.563L580.734 271.777C582.402 273.173 589.996 280.181 589.996 288.584C589.996 298.021 583.027 303.916 583.027 310.562C583.027 313.088 583.534 314.417 583.534 314.417L583.447 314.386C583.447 314.386 582.06 313.826 579.611 313.826C573.158 313.826 567.428 321 558.262 321C550.096 321 543.287 313.187 541.931 311.465L541.723 311.492C541.723 315.012 538.949 317.865 535.529 317.865C532.11 317.865 529.34 315.012 529.34 311.492H529.293C529.293 315.012 526.519 317.852 523.099 317.852C519.68 317.852 516.91 314.936 516.91 311.416H516.841C516.841 311.416 513.512 316.559 507.393 316.559C499.201 316.559 493.892 310.316 486 310.316C480.4 310.316 478.744 312.114 478.744 312.114H112.253C112.253 312.114 110.593 310.316 104.997 310.316C97.1024 310.316 91.7927 316.559 83.6026 316.559C77.4851 316.559 74.1565 311.416 74.1565 311.416H74.0871C74.0871 314.936 71.3151 317.852 67.8955 317.852C64.4759 317.852 61.7038 315.012 61.7038 311.492H61.6562C61.6562 315.012 58.8841 317.865 55.4645 317.865C52.0454 317.865 49.2729 315.012 49.2729 311.492L49.0644 311.465C47.713 313.182 40.9046 320.996 32.7406 320.996C23.5727 320.996 17.8461 313.822 11.3892 313.822C8.93438 313.822 7.55268 314.381 7.55268 314.381L7.466 314.412C7.466 314.412 7.97438 313.079 7.97438 310.557C7.97438 303.916 1.0052 298.017 1.0052 288.58C1.0052 280.177 8.59546 273.168 10.2684 271.773L10.2424 271.559C6.82282 271.559 4.05075 268.705 4.05075 265.185C4.05075 261.665 6.82282 258.812 10.2424 258.812V258.763C6.82282 258.763 4.06375 255.91 4.06375 252.39C4.06375 248.87 6.8965 246.017 10.3161 246.017V245.945C10.3161 245.945 5.31933 242.52 5.31933 236.223C5.31933 227.792 11.3849 222.327 11.3849 214.201C11.3849 208.44 9.63823 206.732 9.63823 206.732V115.259C9.63823 115.259 11.3849 113.551 11.3849 107.79C11.3849 99.6639 5.31933 94.199 5.31933 85.7685C5.31933 79.4715 10.3165 76.0456 10.3165 76.0456V75.9743C6.89693 75.9743 4.06375 73.1206 4.06375 69.6011C4.06375 66.0811 6.82282 63.2279 10.2424 63.2279V63.1789C6.82282 63.1789 4.05075 60.3256 4.05075 56.8057C4.05075 53.2861 6.82282 50.4325 10.2424 50.4325L10.2684 50.2181C8.59112 48.8316 1 41.8188 1 33.4156C1 23.9788 7.96918 18.0842 7.96918 11.4382C7.96918 8.91124 7.46123 7.58312 7.46123 7.58312L7.54791 7.61432C7.54791 7.61432 8.93395 8.17364 11.3844 8.17364C17.8379 8.17364 23.5679 1 32.7362 1C40.9003 1 47.7087 8.81275 49.0644 10.5349L49.2729 10.5081C49.2729 6.98814 52.0454 4.1349 55.4645 4.1349C58.8841 4.1349 61.6562 6.98814 61.6562 10.5081H61.7038C61.7038 6.98814 64.4759 4.14827 67.8955 4.14827C71.3151 4.14827 74.0871 7.06435 74.0871 10.5839H74.1565C74.1565 10.5839 77.4851 5.44074 83.6026 5.44074C91.7927 5.44074 97.1024 11.6847 104.997 11.6847C110.593 11.6847 112.253 9.88639 112.253 9.88639H478.749C478.749 9.88639 480.404 11.6843 486.004 11.6843C493.896 11.6843 499.206 5.44074 507.397 5.44074C513.517 5.44074 516.845 10.5839 516.845 10.5839H516.915C516.915 7.06435 519.684 4.14827 523.104 4.14827C526.523 4.14827 529.297 6.98814 529.297 10.5081H529.345C529.345 6.98814 532.114 4.1349 535.534 4.1349C538.953 4.1349 541.727 6.98814 541.727 10.5081L541.935 10.5349C543.292 8.81319 550.101 1 558.266 1C567.433 1 573.158 8.17364 579.616 8.17364C582.069 8.17364 583.451 7.61432 583.451 7.61432L583.538 7.58312C583.538 7.58312 583.031 8.9157 583.031 11.4382C583.031 18.0797 590 23.9788 590 33.4156C590 41.8188 582.407 48.8271 580.738 50.2225L580.764 50.4369C584.179 50.4369 586.953 53.2906 586.953 56.8101C586.953 60.3301 584.179 63.1833 580.764 63.1833V63.2323C584.179 63.2323 586.94 66.0856 586.94 69.6056C586.94 73.1251 584.106 75.9788 580.686 75.9788V76.0501C580.686 76.0501 585.683 79.476 585.683 85.773C585.683 94.2035 579.62 99.6684 579.62 107.795C579.62 113.555 581.367 115.264 581.367 115.264L581.362 206.736V206.736Z" stroke="black" stroke-width="1.025"/>
</svg>
