<svg width="58" height="88" viewBox="0 0 58 88" fill="none" xmlns="http://www.w3.org/2000/svg">
<path d="M44.246 54.3772C44.165 54.1948 43.9597 54.2376 43.9164 54.4328C43.4957 56.3339 44.025 64.3504 40.5248 63.3297C38.0925 62.62 38.0925 56.0894 42.9 52.4114C49.2395 47.5621 44.988 35.7754 43.4202 31.6786C43.2849 31.3274 42.8162 31.456 42.8402 31.8364C43.1615 36.7943 43.9256 40.2288 42.1028 42.9007C40.0682 45.8809 37.3569 40.1731 39.9558 38.1453C42.5548 36.1156 42.3311 32.0243 40.464 29.3315C38.8953 27.0683 38.5123 23.143 38.4322 20.7412C38.4119 20.1291 37.6441 20.016 37.4839 20.6016C36.7226 23.383 37.1194 26.3495 36.4556 29.1564C36.195 30.2601 35.7393 31.3448 34.9936 32.2168C34.4937 32.8006 33.8355 33.3936 33.0833 33.6253C32.0642 33.9409 31.4252 33.2349 31.2779 32.2752C31.1297 31.3092 31.3332 30.2866 31.6259 29.3662C31.9666 28.2989 32.298 27.2407 32.4987 26.136C32.8909 23.9759 32.8936 21.5148 31.4446 19.7122C30.9216 19.0636 30.2459 18.551 29.502 18.1706C23.6983 15.2059 25.9548 14.7516 25.779 9.01014C25.755 8.20466 24.6448 7.98847 24.306 8.72097C20.6446 16.6691 21.3866 19.3026 23.0944 23.0555C25.4015 28.1274 27.7096 34.9754 23.5492 34.6725C19.8786 34.4043 21.4225 24.9073 20.3215 21.3633C20.1401 20.7768 19.2692 20.8899 19.2452 21.5029C19.155 23.9038 18.7205 27.83 16.94 30.0923C14.8225 32.786 14.5684 36.8773 17.5172 38.9061C20.4651 40.9348 17.3883 46.6416 15.0812 43.6614C13.0125 40.9896 13.8798 37.5542 14.2434 32.5963C14.272 32.215 13.7398 32.0864 13.587 32.4376C11.8083 36.5343 7.96562 47.386 14.1836 53.1722C15.7256 54.6062 17.5411 55.7784 18.7352 57.5462C19.5325 58.7266 19.9633 60.282 19.5223 61.6722C19.0887 63.0405 17.3496 64.6779 15.9199 63.4993C14.7185 62.5096 14.5067 60.4033 14.2885 58.9866C14.0934 57.715 13.9939 56.4324 13.8034 55.1599C13.7665 54.9163 13.5971 53.6137 13.2593 54.3772C12.4196 56.2746 9.84187 63.7192 13.5226 69.6212C14.0418 70.454 14.6098 71.2586 15.1521 72.0759C16.7144 74.434 18.7527 76.5038 21.3222 77.7727C25.0379 79.6063 29.4735 79.8717 33.4304 78.6849C38.3272 77.2163 42.7426 72.6187 44.8002 68.0631C46.6958 63.8688 46.0707 58.5041 44.2469 54.3772H44.246Z" fill="black"/>
</svg>
