<svg width="82" height="70" viewBox="0 0 82 70" fill="none" xmlns="http://www.w3.org/2000/svg">
<g id="Vector 431">
<path fill-rule="evenodd" clip-rule="evenodd" d="M45.7433 68.9635C44.3734 63.2259 53.3917 56.5548 58.0721 53.9364C60.0127 50.4073 63.757 43.1442 63.2091 42.3246C63.0647 42.1086 62.7225 41.8775 62.2915 41.5864C60.8591 40.6188 58.4459 38.9887 59.0572 35.0517C56.8989 43.5527 54.7869 43.5067 53.9625 42.3246C52.7708 44.5104 51.4112 43.2353 50.8803 42.3246C50.2365 43.1443 49.0937 42.6661 48.6028 42.3246C48.9452 43.1215 49.2192 44.2371 47.5754 42.3246C45.9315 40.4121 45.9704 34.0142 46.1952 31.0543C45.7037 30.7304 45.2057 30.2852 44.7159 29.6882C42.23 31.3409 38.901 33.3295 35.2872 35.1525C34.3571 35.6217 33.4081 36.0799 32.4498 36.5186C31.7477 36.84 31.0407 37.1509 30.3323 37.4479C29.5331 37.7831 28.7322 38.1007 27.9351 38.3958C21.2461 40.8721 14.8217 41.7671 11.8392 38.2263C12.1276 37.6804 12.4394 37.1096 12.7733 36.5186C18.9144 25.6483 32.5031 7.94752 44.7159 12.6119C50.8803 10.3348 63.2091 7.82969 63.2091 16.0263C70.0584 15.1159 82.1132 16.5736 75.5378 29.6882C78.8484 29.0051 84.0995 30.5761 78.62 42.3246C79.1908 46.4229 77.1817 55.0977 64.5789 57.0102C58.0036 67.3925 49.2821 69.3051 45.7433 68.9635ZM37.1817 16.0263C36.0401 16.9373 34.0995 19.4424 35.4693 22.1746L37.1817 16.0263ZM58.0721 14.3195C56.7022 14.2056 53.9625 14.9342 53.9625 18.7593L58.0721 14.3195ZM74.5105 23.8822C73.0265 23.5407 69.5105 23.404 67.3187 25.5898L74.5105 23.8822ZM78.62 33.4449C77.5926 32.5342 74.7159 31.6006 71.4283 35.1525L78.62 33.4449Z" fill="#222222"/>
<path d="M58.0721 53.9364C53.3917 56.5548 44.3734 63.2259 45.7433 68.9635M58.0721 53.9364C60.0127 50.4073 63.757 43.1442 63.2091 42.3246M58.0721 53.9364C58.5188 54.3819 58.9798 54.7669 59.4419 55.0987M45.7433 68.9635C49.2821 69.3051 58.0036 67.3925 64.5789 57.0102M45.7433 68.9635C45.7433 67.3243 54.8757 59.0373 59.4419 55.0987M45.7433 68.9635C49.4831 68.9635 58.112 60.6199 61.959 56.448M64.5789 57.0102C77.1817 55.0977 79.1908 46.4229 78.62 42.3246M64.5789 57.0102C64.0304 57.0102 63.0761 56.8682 61.959 56.448M63.2091 42.3246C63.0647 42.1086 62.7225 41.8775 62.2915 41.5864C60.8591 40.6188 58.4459 38.9887 59.0572 35.0517M63.2091 42.3246C67.9637 40.9585 77.7023 39.046 78.62 42.3246M59.4419 33.4449C58.3534 33.5702 56.8747 33.6495 55.4521 33.5649M59.4419 33.4449C59.3137 34.0117 59.1853 34.5467 59.0572 35.0517M59.4419 33.4449C59.26 34.0196 59.1344 34.554 59.0572 35.0517M59.4419 33.4449C64.5516 30.986 72.3016 29.9159 75.5378 29.6882M50.8803 31.0543C50.4083 31.4204 49.5894 31.7961 48.6028 31.8039M50.8803 31.0543C50.7988 31.8667 51.2605 32.4376 52.0274 32.8297M50.8803 31.0543C50.8803 27.8563 59.0995 19.7031 63.2091 16.0263M44.7159 29.6882C42.23 31.3409 38.901 33.3295 35.2872 35.1525M44.7159 29.6882C45.2057 30.2852 45.7037 30.7304 46.1952 31.0543M44.7159 29.6882C41.9676 25.3974 43.5708 16.5162 44.7159 12.6119M11.8392 38.2263C12.1276 37.6804 12.4394 37.1096 12.7733 36.5186M11.8392 38.2263C6.04833 39.9339 -3.70268 34.8793 3.61998 1M11.8392 38.2263C14.8217 41.7671 21.2461 40.8721 27.9351 38.3958M44.7159 12.6119C50.8803 10.3348 63.2091 7.82969 63.2091 16.0263M44.7159 12.6119C32.5031 7.94752 18.9144 25.6483 12.7733 36.5186M63.2091 16.0263C70.0584 15.1159 82.1132 16.5736 75.5378 29.6882M75.5378 29.6882C78.8483 29.0051 84.0995 30.5761 78.62 42.3246M12.7733 36.5186C10.1788 36.4048 4.98984 34.3328 4.98984 26.9559C5.90308 21.9469 7.93505 10.0846 8.75697 2.70763M20.4008 33.4449C19.6017 32.4204 17.9351 30.986 17.6611 33.4449M39.9214 16.0263C39.2365 16.4819 38.0721 18.3495 38.894 22.1746M27.9351 38.3958C27.4785 40.1607 26.8392 44.2371 27.9351 46.4228M27.9351 38.3958C28.7322 38.1007 29.5331 37.7831 30.3323 37.4479M30.3323 37.4479C30.5607 39.7565 32.2502 44.7835 37.1817 46.4228M30.3323 37.4479C31.0407 37.1509 31.7478 36.84 32.4498 36.5186M32.4498 36.5186C33.9129 38.5678 37.9351 42.871 42.3187 43.6906M32.4498 36.5186C33.4081 36.0799 34.3571 35.6217 35.2872 35.1525M35.2872 35.1525C37.1817 36.5186 37.8666 37.8847 43.6885 41.3M46.1952 31.0543C45.9704 34.0142 45.9315 40.4121 47.5754 42.3246C49.2192 44.2371 48.9452 43.1215 48.6028 42.3246M46.1952 31.0543C47.0413 31.6117 47.8685 31.8097 48.6028 31.8039M48.6028 42.3246C48.2603 38.8655 47.7809 31.9186 48.6028 31.8039M48.6028 42.3246C49.0937 42.6661 50.2365 43.1443 50.8803 42.3246M50.8803 42.3246C51.524 41.5049 51.9133 35.6531 52.0274 32.8297M50.8803 42.3246C51.4112 43.2353 52.7708 44.5104 53.9625 42.3246M52.0274 32.8297C52.8937 33.2726 54.1494 33.4875 55.4521 33.5649M53.9625 42.3246C54.459 39.6498 55.4521 34.1531 55.4521 33.5649M53.9625 42.3246C54.7869 43.5067 56.8989 43.5527 59.0572 35.0517M59.4419 55.0987C60.305 55.7182 61.1723 56.1521 61.959 56.448M37.1817 16.0263C36.0401 16.9373 34.0995 19.4424 35.4693 22.1746L37.1817 16.0263ZM58.0721 14.3195C56.7022 14.2056 53.9625 14.9342 53.9625 18.7593L58.0721 14.3195ZM74.5105 23.8822C73.0265 23.5407 69.5105 23.404 67.3187 25.5898L74.5105 23.8822ZM78.62 33.4449C77.5926 32.5342 74.7159 31.6006 71.4283 35.1525L78.62 33.4449ZM75.5378 46.4228C75.1954 45.1706 73.6201 43.0759 70.0584 44.7152L75.5378 46.4228Z" stroke="#FFFCF6"/>
</g>
</svg>
