<svg width="82" height="70" viewBox="0 0 82 70" fill="none" xmlns="http://www.w3.org/2000/svg">
<g id="Vector 432">
<path fill-rule="evenodd" clip-rule="evenodd" d="M36.2567 68.9635C37.6266 63.2259 28.6083 56.5548 23.9279 53.9364C21.9873 50.4073 18.243 43.1442 18.7909 42.3246C18.9353 42.1086 19.2775 41.8775 19.7085 41.5864C21.1409 40.6188 23.5541 38.9887 22.9428 35.0517C25.1011 43.5527 27.2131 43.5067 28.0375 42.3246C29.2292 44.5104 30.5888 43.2353 31.1197 42.3246C31.7635 43.1443 32.9063 42.6661 33.3972 42.3246C33.0548 43.1215 32.7808 44.2371 34.4246 42.3246C36.0685 40.4121 36.0296 34.0142 35.8048 31.0543C36.2963 30.7304 36.7943 30.2852 37.2841 29.6882C39.77 31.3409 43.099 33.3295 46.7128 35.1525C47.6429 35.6217 48.5919 36.0799 49.5502 36.5186C50.2523 36.84 50.9593 37.1509 51.6677 37.4479C52.4669 37.7831 53.2678 38.1007 54.0649 38.3958C60.7539 40.8721 67.1783 41.7671 70.1608 38.2263C69.8724 37.6804 69.5606 37.1096 69.2267 36.5186C63.0856 25.6483 49.4969 7.94752 37.2841 12.6119C31.1197 10.3348 18.7909 7.82969 18.7909 16.0263C11.9416 15.1159 -0.11319 16.5736 6.46216 29.6882C3.15165 29.0051 -2.09949 30.5761 3.37996 42.3246C2.80919 46.4229 4.81832 55.0977 17.4211 57.0102C23.9964 67.3925 32.7179 69.3051 36.2567 68.9635ZM44.8183 16.0263C45.9599 16.9373 47.9005 19.4424 46.5307 22.1746L44.8183 16.0263ZM23.9279 14.3195C25.2978 14.2056 28.0375 14.9342 28.0375 18.7593L23.9279 14.3195ZM7.48953 23.8822C8.97355 23.5407 12.4895 23.404 14.6813 25.5898L7.48953 23.8822ZM3.37996 33.4449C4.40736 32.5342 7.28406 31.6006 10.5717 35.1525L3.37996 33.4449Z" fill="#222222"/>
<path d="M23.9279 53.9364C28.6083 56.5548 37.6266 63.2259 36.2567 68.9635M23.9279 53.9364C21.9873 50.4073 18.243 43.1442 18.7909 42.3246M23.9279 53.9364C23.4812 54.3819 23.0202 54.7669 22.5581 55.0987M36.2567 68.9635C32.7179 69.3051 23.9964 67.3925 17.4211 57.0102M36.2567 68.9635C36.2567 67.3243 27.1243 59.0373 22.5581 55.0987M36.2567 68.9635C32.5169 68.9635 23.888 60.6199 20.041 56.448M17.4211 57.0102C4.81832 55.0977 2.80919 46.4229 3.37996 42.3246M17.4211 57.0102C17.9696 57.0102 18.9239 56.8682 20.041 56.448M18.7909 42.3246C18.9353 42.1086 19.2775 41.8775 19.7085 41.5864C21.1409 40.6188 23.5541 38.9887 22.9428 35.0517M18.7909 42.3246C14.0363 40.9585 4.29768 39.046 3.37996 42.3246M22.5581 33.4449C23.6466 33.5702 25.1253 33.6495 26.5479 33.5649M22.5581 33.4449C22.6863 34.0117 22.8147 34.5467 22.9428 35.0517M22.5581 33.4449C22.74 34.0196 22.8656 34.554 22.9428 35.0517M22.5581 33.4449C17.4484 30.986 9.69842 29.9159 6.46216 29.6882M31.1197 31.0543C31.5917 31.4204 32.4106 31.7961 33.3972 31.8039M31.1197 31.0543C31.2012 31.8667 30.7395 32.4376 29.9726 32.8297M31.1197 31.0543C31.1197 27.8563 22.9005 19.7031 18.7909 16.0263M37.2841 29.6882C39.77 31.3409 43.099 33.3295 46.7128 35.1525M37.2841 29.6882C36.7943 30.2852 36.2963 30.7304 35.8048 31.0543M37.2841 29.6882C40.0324 25.3974 38.4292 16.5162 37.2841 12.6119M70.1608 38.2263C69.8724 37.6804 69.5606 37.1096 69.2267 36.5186M70.1608 38.2263C75.9517 39.9339 85.7027 34.8793 78.38 1M70.1608 38.2263C67.1783 41.7671 60.7539 40.8721 54.0649 38.3958M37.2841 12.6119C31.1197 10.3348 18.7909 7.82969 18.7909 16.0263M37.2841 12.6119C49.4969 7.94752 63.0856 25.6483 69.2267 36.5186M18.7909 16.0263C11.9416 15.1159 -0.113192 16.5736 6.46216 29.6882M6.46216 29.6882C3.15165 29.0051 -2.09949 30.5761 3.37996 42.3246M69.2267 36.5186C71.8212 36.4048 77.0102 34.3328 77.0102 26.9559C76.0969 21.9469 74.065 10.0846 73.243 2.70763M61.5992 33.4449C62.3983 32.4204 64.0649 30.986 64.3389 33.4449M42.0786 16.0263C42.7635 16.4819 43.9279 18.3495 43.106 22.1746M54.0649 38.3958C54.5215 40.1607 55.1608 44.2371 54.0649 46.4228M54.0649 38.3958C53.2678 38.1007 52.4669 37.7831 51.6677 37.4479M51.6677 37.4479C51.4393 39.7565 49.7498 44.7835 44.8183 46.4228M51.6677 37.4479C50.9593 37.1509 50.2522 36.84 49.5502 36.5186M49.5502 36.5186C48.0871 38.5678 44.0649 42.871 39.6813 43.6906M49.5502 36.5186C48.5919 36.0799 47.6429 35.6217 46.7128 35.1525M46.7128 35.1525C44.8183 36.5186 44.1334 37.8847 38.3115 41.3M35.8048 31.0543C36.0296 34.0142 36.0685 40.4121 34.4246 42.3246C32.7808 44.2371 33.0548 43.1215 33.3972 42.3246M35.8048 31.0543C34.9587 31.6117 34.1315 31.8097 33.3972 31.8039M33.3972 42.3246C33.7397 38.8655 34.2191 31.9186 33.3972 31.8039M33.3972 42.3246C32.9063 42.6661 31.7635 43.1443 31.1197 42.3246M31.1197 42.3246C30.476 41.5049 30.0867 35.6531 29.9726 32.8297M31.1197 42.3246C30.5888 43.2353 29.2292 44.5104 28.0375 42.3246M29.9726 32.8297C29.1063 33.2726 27.8506 33.4875 26.5479 33.5649M28.0375 42.3246C27.541 39.6498 26.5479 34.1531 26.5479 33.5649M28.0375 42.3246C27.2131 43.5067 25.1011 43.5527 22.9428 35.0517M22.5581 55.0987C21.695 55.7182 20.8277 56.1521 20.041 56.448M44.8183 16.0263C45.9599 16.9373 47.9005 19.4424 46.5307 22.1746L44.8183 16.0263ZM23.9279 14.3195C25.2978 14.2056 28.0375 14.9342 28.0375 18.7593L23.9279 14.3195ZM7.48953 23.8822C8.97355 23.5407 12.4895 23.404 14.6813 25.5898L7.48953 23.8822ZM3.37996 33.4449C4.40735 32.5342 7.28405 31.6006 10.5717 35.1525L3.37996 33.4449ZM6.46216 46.4228C6.80462 45.1706 8.37995 43.0759 11.9416 44.7152L6.46216 46.4228Z" stroke="#FFFCF6"/>
</g>
</svg>
